<svg xmlns="http://www.w3.org/2000/svg" fill="none" viewBox="0 0 250 70">
  <defs/>
  <path fill="#000" d="M16.053 69.996c-.646 0-1.276-.007-1.917-.02a31.071 31.071 0 01-3.963-.298 13.897 13.897 0 01-3.512-1.002 11.55 11.55 0 01-2.962-1.86 9.954 9.954 0 01-2.164-2.556 9.506 9.506 0 01-1.151-3.033 19.695 19.695 0 01-.353-3.431A137.527 137.527 0 010 56.105V13.873v-.044c.003-.167.02-1.272.031-1.615.016-1.148.134-2.294.351-3.426a9.56 9.56 0 011.152-3.042A10.039 10.039 0 013.686 3.19 11.888 11.888 0 016.66 1.318a13.755 13.755 0 013.505-.995 30.812 30.812 0 013.976-.3L16.054 0h217.881l1.936.023c1.32.014 2.638.113 3.94.298 1.232.18 2.426.518 3.543 1.002 2.2.98 3.99 2.528 5.12 4.429a9.58 9.58 0 011.135 3.017c.22 1.142.343 2.296.368 3.454.006.518.006 1.075.006 1.629.017.686.017 1.34.017 1.998v38.298c0 .665 0 1.314-.017 1.968 0 .595 0 1.14-.008 1.701a20.285 20.285 0 01-.362 3.392 9.525 9.525 0 01-1.145 3.056 10.275 10.275 0 01-2.153 2.536 11.555 11.555 0 01-2.967 1.871 13.853 13.853 0 01-3.537 1.006c-1.31.185-2.635.285-3.963.299-.621.012-1.271.02-1.902.02l-2.298.003-215.595-.004z"/>
  <path fill="#fff" fill-rule="evenodd" d="M148.417 50.807c-3.027 0-5.242-1.48-5.497-3.733h-3.523c.222 4.11 3.666 6.71 8.765 6.71 5.451 0 8.878-2.662 8.878-6.913 0-3.325-1.96-5.197-6.679-6.3l-2.533-.615c-2.964-.724-4.176-1.669-4.176-3.275 0-2.016 1.897-3.401 4.67-3.401 2.772 0 4.669 1.369 4.877 3.636h3.474c-.112-3.92-3.443-6.613-8.303-6.613-4.91 0-8.367 2.693-8.367 6.613 0 3.167 1.96 5.119 6.183 6.127l2.98.71c2.98.723 4.239 1.779 4.239 3.543 0 2.032-2.087 3.511-4.988 3.511zM88.46 47.264h-8.765l-2.105 6.142h-3.713l8.303-22.724h3.857l8.302 22.724h-3.775l-2.104-6.142zm-7.857-2.834h6.948l-3.425-9.968h-.096l-3.427 9.968zm24.671 9.15c4.208 0 6.996-3.308 6.996-8.456 0-5.134-2.805-8.459-7.06-8.459a5.963 5.963 0 00-5.338 2.93h-.064v-2.756h-3.33v22.049h3.44V50.68h.08a5.698 5.698 0 005.276 2.898zm3.459-8.456c0-3.355-1.754-5.56-4.431-5.56-2.629 0-4.398 2.252-4.398 5.56 0 3.338 1.769 5.574 4.398 5.574 2.677 0 4.431-2.19 4.431-5.574zm14.994 8.456c4.208 0 6.997-3.308 6.997-8.456 0-5.134-2.805-8.459-7.061-8.459a5.963 5.963 0 00-5.338 2.93h-.063v-2.756h-3.332v22.049h3.442V50.68h.08a5.698 5.698 0 005.275 2.898zm3.459-8.456c0-3.355-1.754-5.56-4.431-5.56-2.629 0-4.398 2.252-4.398 5.56 0 3.338 1.769 5.574 4.398 5.574 2.677 0 4.431-2.19 4.431-5.574zm37.282-12.206v3.921h3.188v2.693h-3.188v9.134c0 1.419.638 2.08 2.039 2.08.379-.006.757-.032 1.133-.078v2.677a9.565 9.565 0 01-1.912.157c-3.394 0-4.718-1.26-4.718-4.473V39.53h-2.438v-2.693h2.438v-3.92h3.458zm12.986 3.717c-4.845 0-7.952 3.276-7.952 8.489 0 5.227 3.076 8.489 7.952 8.489 4.877 0 7.954-3.262 7.954-8.49 0-5.212-3.093-8.488-7.954-8.488zm4.447 8.489c0-3.576-1.658-5.687-4.447-5.687s-4.445 2.127-4.445 5.687c0 3.59 1.656 5.685 4.445 5.685 2.789 0 4.447-2.095 4.447-5.685zm9.626-8.285h-3.282v16.568h3.441v-9.827a3.405 3.405 0 01.906-2.721 3.49 3.49 0 012.68-1.091 4.867 4.867 0 011.547.205v-3.18a5.37 5.37 0 00-1.179-.128c-1.892-.071-3.575 1.178-4.033 2.994h-.08v-2.82zm21.159 11.701c-.463 3.008-3.427 5.072-7.219 5.072-4.878 0-7.905-3.229-7.905-8.41 0-5.197 3.044-8.567 7.76-8.567 4.639 0 7.556 3.149 7.556 8.172v1.166h-11.842v.205a4.287 4.287 0 001.184 3.352 4.392 4.392 0 003.326 1.34 3.797 3.797 0 003.872-2.33h3.268zm-3.251-4.944h-8.383a4.17 4.17 0 011.249-2.982 4.268 4.268 0 013.021-1.223 4.057 4.057 0 012.986 1.214 3.959 3.959 0 011.127 2.99zM120.832 13.039h1.646v11.457h-1.646V13.039zm-35.484 2.033a4.92 4.92 0 00-3.9-1.496h-3.991v10.919h3.991c3.292 0 5.2-2.006 5.2-5.494a4.795 4.795 0 00-1.3-3.929zm-4.092 7.88h-2.083V15.12h2.083a3.505 3.505 0 012.754 1.103 3.416 3.416 0 01.89 2.802 3.406 3.406 0 01-.876 2.82 3.495 3.495 0 01-2.768 1.107zm7.33-2.58a3.89 3.89 0 011.85-3.689 3.99 3.99 0 014.166 0 3.89 3.89 0 011.85 3.69 3.89 3.89 0 01-1.848 3.694 3.99 3.99 0 01-4.17 0 3.89 3.89 0 01-1.848-3.695zm3.935-2.83c1.425 0 2.237 1.044 2.237 2.83 0 1.794-.812 2.837-2.237 2.837-1.43 0-2.235-1.036-2.235-2.837 0-1.786.805-2.83 2.235-2.83zm14.385 6.954h-1.707l-1.724-6.07h-.13l-1.716 6.07h-1.691l-2.299-8.24h1.67l1.493 6.287h.123l1.715-6.287h1.578l1.715 6.287h.13l1.487-6.287h1.645l-2.289 8.24zm5.807-8.24h-1.585v8.24h1.646v-4.821a1.876 1.876 0 01.51-1.496 1.925 1.925 0 011.481-.592c1.217 0 1.8.658 1.8 1.983v4.925h1.645v-5.334a2.66 2.66 0 00-.697-2.218 2.73 2.73 0 00-2.189-.847 2.5 2.5 0 00-2.488 1.468h-.123v-1.309zm13.903.427a3.89 3.89 0 00-1.85 3.69 3.89 3.89 0 001.848 3.694 3.99 3.99 0 004.17 0 3.892 3.892 0 001.848-3.695 3.89 3.89 0 00-1.85-3.689 3.99 3.99 0 00-4.166 0zm4.322 3.69c0-1.787-.812-2.832-2.237-2.832-1.43 0-2.235 1.045-2.235 2.831 0 1.8.805 2.837 2.235 2.837 1.425 0 2.237-1.043 2.237-2.837zm6.528-.668c-1.984.122-3.102.977-3.102 2.46.003.704.307 1.373.836 1.843a2.54 2.54 0 001.944.624 2.814 2.814 0 002.504-1.294h.131v1.158h1.584v-5.63c0-1.741-1.179-2.77-3.27-2.77-1.891 0-3.239.908-3.407 2.324h1.593c.183-.583.82-.916 1.738-.916 1.125 0 1.707.491 1.707 1.362v.71l-2.258.13zm2.258 1.756v-.689l-2.036.13c-1.148.075-1.669.461-1.669 1.188 0 .741.651 1.173 1.546 1.173a1.981 1.981 0 001.466-.449c.407-.34.657-.828.693-1.353zm7.263-5.342c-2.107 0-3.461 1.65-3.461 4.253 0 2.61 1.34 4.26 3.461 4.26a2.902 2.902 0 002.619-1.438h.13v1.302h1.577V13.039h-1.646v4.525h-.123a2.753 2.753 0 00-2.557-1.445zm-1.761 4.253c0 1.748.833 2.8 2.228 2.8 1.387 0 2.244-1.068 2.244-2.793 0-1.717-.866-2.8-2.244-2.8-1.386 0-2.228 1.06-2.228 2.793zm14.745-3.689a3.89 3.89 0 00-1.849 3.69 3.889 3.889 0 001.847 3.694 3.99 3.99 0 004.17 0 3.891 3.891 0 001.848-3.695 3.89 3.89 0 00-1.85-3.689 3.99 3.99 0 00-4.166 0zm4.323 3.69c0-1.787-.812-2.832-2.237-2.832-1.43 0-2.235 1.045-2.235 2.831 0 1.8.805 2.837 2.235 2.837 1.425 0 2.237-1.043 2.237-2.837zm5.485-4.118h-1.584v8.24h1.646v-4.82a1.876 1.876 0 01.51-1.496 1.922 1.922 0 011.481-.592c1.217 0 1.799.658 1.799 1.983v4.925h1.646v-5.334a2.66 2.66 0 00-.698-2.218 2.728 2.728 0 00-2.188-.847 2.5 2.5 0 00-2.489 1.468h-.123v-1.309zm14.797-2.05v2.088h1.807v1.37h-1.807V21.9c0 .863.36 1.241 1.179 1.241.21 0 .419-.013.628-.037v1.354c-.296.053-.595.08-.896.084-1.83 0-2.559-.637-2.559-2.225v-4.654h-1.323v-1.37h1.323v-2.089h1.648zm5.686-1.166h-1.631v11.457h1.645v-4.813a1.914 1.914 0 01.558-1.527 1.962 1.962 0 011.542-.562c1.163 0 1.783.666 1.783 1.983v4.919h1.647v-5.32a2.694 2.694 0 00-.704-2.204 2.765 2.765 0 00-2.167-.869 2.57 2.57 0 00-2.543 1.477h-.13v-4.541zm15.14 9.232c-.461 1.554-1.984 2.558-3.613 2.384a3.81 3.81 0 01-2.923-1.246 3.716 3.716 0 01-.929-3.008 3.769 3.769 0 01.928-3.019 3.867 3.867 0 012.916-1.286c2.321 0 3.72 1.567 3.72 4.154v.568h-5.888v.091a2.162 2.162 0 00.582 1.666c.423.45 1.018.701 1.639.695.805.095 1.589-.3 1.984-1h1.584zm-1.577-2.656h-4.212a2.098 2.098 0 01.624-1.517c.407-.402.96-.625 1.535-.617a2.024 2.024 0 011.505.618c.391.406.59.957.548 1.516zM50.446 13.557a8.847 8.847 0 01-2.063 6.388 7.627 7.627 0 01-5.995 2.8 8.421 8.421 0 012.119-6.151 9.216 9.216 0 015.94-3.037zm7.36 13.594a9.035 9.035 0 00-4.364 7.598c.003 3.512 2.132 6.682 5.405 8.05a19.963 19.963 0 01-2.811 5.66c-1.657 2.447-3.393 4.84-6.15 4.884-1.31.03-2.195-.343-3.117-.731-.962-.405-1.964-.827-3.532-.827-1.664 0-2.71.436-3.72.856-.873.363-1.718.714-2.909.763-2.625.096-4.631-2.613-6.347-5.039-3.431-4.953-6.103-13.958-2.521-20.086 1.682-2.986 4.826-4.881 8.283-4.991 1.489-.03 2.917.536 4.17 1.033.958.38 1.812.72 2.512.72.616 0 1.447-.326 2.415-.706 1.526-.598 3.392-1.33 5.294-1.133a9.411 9.411 0 017.392 3.948z" clip-rule="evenodd"/>
</svg>
