<svg xmlns="http://www.w3.org/2000/svg" fill="none" viewBox="0 0 526 559">
  <defs/>
  <circle cx="243" cy="254" r="193" fill="#F3F3FF"/>
  <g fill="#BDCEFA" opacity=".15">
    <path d="M457.396 435.542l-81.41 45.647c-3.613 2.085-9.969 1.827-14.133-.588l-27.08-16.172c-4.164-2.452-4.617-6.131-1.016-8.166l81.103-46.591c3.613-2.084 9.969-1.815 14.134.588l27.385 17.092c4.164 2.428 4.617 6.106 1.017 8.19zM476.881 368.181l-245.66 137.187c-10.876 6.29-30.068 5.493-42.634-1.766L45.463 420.878c-12.566-7.258-13.938-18.391-3.062-24.644L288.06 259.06c10.888-6.29 30.068-5.493 42.634 1.765l143.125 82.724c12.565 7.259 13.986 18.355 3.061 24.632z" opacity=".15"/>
  </g>
  <path fill="url(#paint0_linear)" d="M2.903 183.913A2.916 2.916 0 010 181.056v-61.537a2.92 2.92 0 011.445-2.452l73.828-42.68a2.803 2.803 0 011.446-.405 2.914 2.914 0 012.902 2.857v61.488a2.891 2.891 0 01-1.445 2.452L4.348 183.508a2.801 2.801 0 01-1.445.405z"/>
  <path fill="url(#paint1_linear)" d="M58.065 273.172a6.218 6.218 0 01-4.387-1.824 6.233 6.233 0 01-1.822-4.392v-131.51a6.219 6.219 0 013.099-5.371L212.862 38.83a6.12 6.12 0 013.074-.846 6.232 6.232 0 014.392 1.824 6.25 6.25 0 011.83 4.392v131.486a6.199 6.199 0 01-.837 3.102 6.2 6.2 0 01-2.274 2.268l-157.895 91.27c-.936.551-2.001.843-3.087.846z"/>
  <path fill="url(#paint2_linear)" d="M182.439 97.45a2.573 2.573 0 01-2.572-2.576V40.387a2.567 2.567 0 011.286-2.219L246.53.356A2.45 2.45 0 01247.755 0a2.571 2.571 0 012.572 2.575v54.487a2.586 2.586 0 01-1.286 2.232l-65.426 37.812c-.358.21-.762.327-1.176.343z"/>
  <path fill="url(#paint3_linear)" d="M29.835 314.013a2.583 2.583 0 01-2.572-2.575v-54.487a2.575 2.575 0 011.225-2.232l65.426-37.812a2.533 2.533 0 011.225-.356 2.583 2.583 0 012.572 2.575v54.487a2.578 2.578 0 01-1.286 2.232l-65.316 37.812a2.455 2.455 0 01-1.274.356z"/>
  <path fill="#BDCEFA" d="M210.323 110.181c1.671-2.779 1.725-5.816.12-6.784-1.606-.967-4.262.501-5.933 3.28-1.671 2.779-1.724 5.816-.119 6.783 1.605.968 4.261-.501 5.932-3.279zM226.346 97.474a9.176 9.176 0 01-4.189 7.16c-2.327 1.349-4.2.307-4.2-2.317a9.162 9.162 0 014.2-7.173c2.328-1.336 4.189-.294 4.189 2.33zM241.092 88.952a9.187 9.187 0 01-4.201 7.16c-2.314 1.35-4.188.307-4.188-2.317a9.177 9.177 0 014.188-7.148c2.291-1.36 4.201-.319 4.201 2.305zM104.104 176.605a36.742 36.742 0 01-9.443 7.639c-8.573 4.966-16.166 2.207-16.166-9.527 0-12.261 7.667-27.256 19.387-34.024 9.125-5.272 15.653-1.802 15.653 8.264 0 8.742-4.25 16.712-9.798 19.949-2.45 1.41-4.201.98-4.458-2.036h-.11a16.69 16.69 0 01-6.688 8.473c-3.368 1.949-5.793.478-5.793-4.439 0-7.356 4.654-16.65 12.125-20.966a13.56 13.56 0 016.124-2.06l-1.555 11.979c-.515 3.838-.147 5.235 1.298 4.463 2.229-1.226 5.034-6.13 5.034-13.033 0-7.786-4.361-11.317-12.395-6.682-8.034 4.634-14.905 15.853-14.905 27.292 0 10.005 5.548 12.494 13.264 8.031a29.88 29.88 0 007.557-6.228l.869 2.905zm-4.617-22.069a7.368 7.368 0 00-1.605.686c-3.417 1.987-6.123 7.431-6.123 12.041 0 2.28.882 3.212 2.584 2.219 1.923-1.104 3.944-5.088 4.409-8.828l.735-6.118zM126.505 101.177l18.114 5.014c.551.16 1.421-.343 1.984-1.14l18.114-25.895-38.212 22.021zM139.413 106.522l-12.59 20.844a1.852 1.852 0 01-.343-1.14V102.93l12.933 3.592z"/>
  <path fill="#BDCEFA" d="M150.718 100.956l12.689 6.363c-.35.401-.764.741-1.225 1.006l-33.069 19.139a2.46 2.46 0 01-1.09.368l12.664-21.003 4.985 1.385 5.046-7.258zM164.839 80.774v23.296a4.293 4.293 0 01-.306 1.41l-12.529-6.314 12.835-18.392zM291.626 112.15a.307.307 0 01-.307-.306V21.751L168.844 92.68a.3.3 0 01-.243.052.311.311 0 01-.202-.146.304.304 0 01-.039-.121.302.302 0 01.178-.312l123.394-71.469v91.16a.303.303 0 01-.09.216.303.303 0 01-.216.09zM299.819 112.53a.595.595 0 01-.427-.159.596.596 0 01-.185-.417.612.612 0 111.225 0 .636.636 0 01-.613.576zM299.819 107.81a.581.581 0 01-.558-.33.589.589 0 01-.054-.222v-.123a.617.617 0 01.612-.613.613.613 0 01.613.613.667.667 0 01-.613.675zm0-4.757a.57.57 0 01-.561-.328.563.563 0 01-.051-.224v-.111a.617.617 0 01.612-.613.613.613 0 01.613.613.666.666 0 01-.613.663zm0-4.745a.58.58 0 01-.558-.33.587.587 0 01-.054-.222v-.074a.626.626 0 01.612-.613.613.613 0 01.613.613.662.662 0 01-.613.625zm0-4.758a.56.56 0 01-.561-.327.56.56 0 01-.051-.224v-.11a.613.613 0 111.225 0 .663.663 0 01-.613.662zm0-4.745a.577.577 0 01-.612-.551v-.123a.626.626 0 01.612-.613.613.613 0 01.613.613.665.665 0 01-.613.674zm0-4.745a.573.573 0 01-.561-.338.585.585 0 01-.051-.225v-.11a.613.613 0 111.225 0 .665.665 0 01-.613.674zm0-4.757a.58.58 0 01-.558-.33.587.587 0 01-.054-.222v-.122a.626.626 0 01.612-.613.61.61 0 01.613.613.663.663 0 01-.613.662v.012zM299.819 74.583a.598.598 0 01-.502-.258.227.227 0 010-.073.58.58 0 01.032-.667.573.573 0 01.176-.155.686.686 0 01.637 0 .587.587 0 01.271.757.625.625 0 01-.36.353.634.634 0 01-.254.043z"/>
  <path fill="#BDCEFA" d="M124.606 172.473a.598.598 0 01-.539-.318.63.63 0 01.233-.834h.11a.616.616 0 01.805.249.616.616 0 01-.205.818l-.11.061a.61.61 0 01-.294.024zm4.373-2.452a.626.626 0 01-.588-.785.595.595 0 01.294-.367h.11a.61.61 0 01.865.698.613.613 0 01-.265.368l-.11.062a.676.676 0 01-.331.024h.025zm4.384-2.452a.624.624 0 01-.539-.319.627.627 0 01.233-.833.683.683 0 01.894.208.586.586 0 01.08.444.559.559 0 01-.095.209.56.56 0 01-.169.156h-.098a.688.688 0 01-.306.135zm4.385-2.452a.614.614 0 01-.6-.773.595.595 0 01.294-.367l.085-.086a.61.61 0 01.833.233.613.613 0 01-.233.834h-.11a.646.646 0 01-.269.159zm4.372-2.452a.663.663 0 01-.31-.09.66.66 0 01-.229-.229.63.63 0 01.245-.834l.098-.061a.609.609 0 01.833.233.613.613 0 01.061.466.597.597 0 01-.294.368h-.11a.514.514 0 01-.294.147zm4.385-2.452a.606.606 0 01-.539-.307.633.633 0 01-.052-.469.633.633 0 01.285-.377.687.687 0 01.894.208.593.593 0 01.08.444.572.572 0 01-.264.366l-.11.061a.657.657 0 01-.294.074zm4.372-2.453a.61.61 0 01-.548-.846.617.617 0 01.254-.294.649.649 0 01.882.209.558.558 0 01.085.439.547.547 0 01-.269.358l-.098.061a.648.648 0 01-.306.073zm4.385-2.452a.602.602 0 01-.539-.319.622.622 0 01.232-.833l.111-.062a.618.618 0 01.6 1.079l-.11.062a.656.656 0 01-.294.073zm4.372-2.452a.612.612 0 01-.294-1.14h.11a.624.624 0 01.235-.102.609.609 0 01.73.551.627.627 0 01-.032.254.6.6 0 01-.345.363l-.098.062a.66.66 0 01-.306.012zm4.385-2.452a.628.628 0 01-.539-.319.613.613 0 01.245-.834.66.66 0 01.882.209.586.586 0 01.079.443.577.577 0 01-.263.366h-.11a.543.543 0 01-.294.135zm4.372-2.452a.603.603 0 01-.527-.319.614.614 0 01.233-.834.683.683 0 01.894.209.55.55 0 01.08.447.56.56 0 01-.276.362h-.098a.666.666 0 01-.306.135zm4.385-2.452a.602.602 0 01-.294-1.141.66.66 0 01.882.209.57.57 0 01-.016.644.558.558 0 01-.168.153h-.11a.624.624 0 01-.294.135zm4.384-2.453a.598.598 0 01-.539-.318.614.614 0 01.233-.834.688.688 0 01.894.208.575.575 0 01-.184.81l-.11.061a.655.655 0 01-.294.135v-.062zm4.373-2.452a.637.637 0 01-.539-.306.601.601 0 01-.051-.468.62.62 0 01.296-.366.647.647 0 01.971.41.58.58 0 01-.004.231.545.545 0 01-.097.21.55.55 0 01-.172.154l-.11.062a.624.624 0 01-.294.135v-.062zm4.384-2.452a.624.624 0 01-.539-.319.607.607 0 01-.06-.466.58.58 0 01.293-.367.683.683 0 01.894.208.57.57 0 01.08.444.566.566 0 01-.264.365h-.11a.542.542 0 01-.294.209v-.074zm4.373-2.452a.607.607 0 01-.527-.319.618.618 0 01-.056-.465.617.617 0 01.289-.369l.11-.061a.614.614 0 11.588 1.079l-.098.061a.697.697 0 01-.306.147v-.073zm4.384-2.452a.62.62 0 01-.585-.454.614.614 0 01.279-.687.674.674 0 01.894.197.565.565 0 01.08.443.563.563 0 01-.095.21.56.56 0 01-.169.156l-.11.061a.608.608 0 01-.294.147v-.073zm4.373-2.452a.607.607 0 01-.527-.319.615.615 0 01.233-.834h.11a.614.614 0 01.833.245.627.627 0 01-.245.834h-.098a.551.551 0 01-.306.159v-.085zm4.384-2.453a.612.612 0 01-.306-1.14h.11a.616.616 0 01.805.249.615.615 0 01-.205.818h-.11a.642.642 0 01-.294.159v-.086zm4.373-2.452a.626.626 0 01-.527-.319.613.613 0 01.233-.833.66.66 0 01.881.208.542.542 0 01.09.436.549.549 0 01-.261.361h-.11a.55.55 0 01-.306.245v-.098zm4.384-2.452a.624.624 0 01-.539-.319.627.627 0 01.233-.834.682.682 0 01.894.209.586.586 0 01.08.444.566.566 0 01-.264.365h-.11a.61.61 0 01-.245.233l-.049-.098zm4.385-2.452a.614.614 0 01-.6-.773.595.595 0 01.294-.367l.11-.062a.615.615 0 01.833.233.614.614 0 01-.233.834h-.11a.653.653 0 01-.294.233v-.098zm4.372-2.452a.61.61 0 01-.564-.859.613.613 0 01.27-.294l.098-.061a.619.619 0 01.839.239.615.615 0 01-.239.84h-.11a.517.517 0 01-.294.245v-.11zm4.385-2.452a.617.617 0 01-.585-.454.61.61 0 01.279-.687.673.673 0 01.894.196.593.593 0 01.08.444.572.572 0 01-.264.366h-.11a.65.65 0 01-.294.245v-.11zm4.372-2.453a.62.62 0 01-.527-.318.594.594 0 01-.06-.467.59.59 0 01.293-.367.66.66 0 01.971.419.554.554 0 01-.273.586h-.098a.664.664 0 01-.306.27v-.123zm4.385-2.452a.602.602 0 01-.539-.319.622.622 0 01.233-.833h.11a.623.623 0 01.833.245.613.613 0 01-.233.834l-.11.061a.66.66 0 01-.294.135v-.123zm4.372-2.452a.612.612 0 01-.294-1.14h.11a.624.624 0 01.235-.102.609.609 0 01.73.551.627.627 0 01-.032.254.621.621 0 01-.345.363l-.098.062a.666.666 0 01-.306.135v-.123zm4.385-2.452a.6.6 0 01-.539-.319.624.624 0 01.232-.834.677.677 0 01.895.209.57.57 0 01-.016.644.558.558 0 01-.168.153l-.11.061a.52.52 0 01-.282.221l-.012-.135zm4.372-2.452a.612.612 0 01-.548-.847.649.649 0 011.136-.097.562.562 0 01-.172.809h-.11a.664.664 0 01-.306.27v-.135zm4.385-2.453a.613.613 0 01-.294-1.152.665.665 0 01.882.208.577.577 0 01.079.438.555.555 0 01-.263.359h-.11a.632.632 0 01-.294.295v-.148zm4.372-2.452a.597.597 0 01-.527-.319.61.61 0 01-.06-.466.596.596 0 01.293-.367l.11-.061a.624.624 0 01.833.245.616.616 0 01-.245.833h-.098a.66.66 0 01-.306.282v-.147zm4.385-2.452a.639.639 0 01-.539-.306.603.603 0 01.06-.68.618.618 0 01.185-.154.648.648 0 01.881.208.543.543 0 01.085.44.55.55 0 01-.268.357h-.11a.614.614 0 01-.294.282v-.147zm4.384-2.452a.624.624 0 01-.539-.319.61.61 0 01-.06-.466.594.594 0 01.293-.367.685.685 0 01.894.208.571.571 0 01.08.444.564.564 0 01-.264.365h-.11a.545.545 0 01-.294.294v-.159zm4.373-2.452a.6.6 0 01-.527-.319.615.615 0 01.233-.834.672.672 0 01.881.209.557.557 0 01-.011.655.564.564 0 01-.172.154h-.098a.664.664 0 01-.306.294v-.16zm4.384-2.452a.614.614 0 01-.306-1.14.673.673 0 01.894.208.575.575 0 01.085.21.579.579 0 01-.1.434.575.575 0 01-.169.153h-.11a.65.65 0 01-.318.294l.024-.16zm4.373-2.453a.602.602 0 01-.527-.318.616.616 0 01.233-.834h.11a.613.613 0 01.883.713.614.614 0 01-.295.366h-.098a.664.664 0 01-.306.245v-.172zm4.384-2.452a.624.624 0 01-.539-.306.613.613 0 01.233-.834.672.672 0 01.894.196.589.589 0 01.08.444.564.564 0 01-.264.365h-.11a.609.609 0 01-.294.307v-.172zm4.373-2.452a.63.63 0 01-.527-.319.612.612 0 01.233-.834.672.672 0 01.881.209.546.546 0 01-.002.644.555.555 0 01-.169.153h-.11a.551.551 0 01-.306.331v-.184zm4.384-2.452a.6.6 0 01-.539-.319.616.616 0 01.245-.834h.098a.625.625 0 01.833.246.616.616 0 01-.233.834h-.11a.61.61 0 01-.294.257v-.184zm4.385-2.452a.61.61 0 01-.539-.307.593.593 0 01-.061-.466.6.6 0 01.294-.367.66.66 0 01.972.417.546.546 0 01-.093.435.555.555 0 01-.169.153h-.11a.654.654 0 01-.294.319v-.184zM120.283 174.926a.6.6 0 01-.432-.164.593.593 0 01-.181-.425.7.7 0 01.307-.588.61.61 0 01.474-.068.617.617 0 01.383.288.578.578 0 01-.135.773.606.606 0 01-.416.184zM120.283 211.414a.612.612 0 01-.613-.613v-.123a.613.613 0 011.225 0v.123a.612.612 0 01-.612.613zm0-5.211a.612.612 0 01-.613-.613v-.123a.613.613 0 011.225 0v.123a.61.61 0 01-.612.613zm0-5.211a.61.61 0 01-.613-.613v-.123a.613.613 0 01.613-.613.629.629 0 01.612.613v.123a.613.613 0 01-.612.613zm0-5.198a.612.612 0 01-.613-.614v-.134a.614.614 0 01.613-.613.62.62 0 01.429.183.62.62 0 01.183.43v.134a.622.622 0 01-.612.589v.025zm0-5.211a.612.612 0 01-.613-.613v-.135a.614.614 0 01.613-.613.62.62 0 01.429.183.62.62 0 01.183.43v.135a.624.624 0 01-.612.613zm0-5.211a.612.612 0 01-.613-.613v-.123a.613.613 0 011.225 0v.123a.612.612 0 01-.612.613zm0-5.211a.612.612 0 01-.613-.613v-.123a.613.613 0 011.225 0v.123a.61.61 0 01-.612.613zM120.283 216.612a.612.612 0 01-.612-.613.633.633 0 01.844-.612.59.59 0 01.38.551v.061a.62.62 0 01-.183.43.62.62 0 01-.429.183zM43.552 240.767a.308.308 0 01-.306-.307v-49.043l.172-.086 28.744-15.179a.301.301 0 01.416.122.32.32 0 01-.134.417l-28.586 15.13v48.639a.309.309 0 01-.306.307z"/>
  <path fill="#BDCEFA" d="M64.226 319.603a.55.55 0 01-.228-.027.55.55 0 01-.334-.3.568.568 0 01-.05-.224v-.123a.613.613 0 011.224 0 .664.664 0 01-.612.674zm0-4.965a.612.612 0 01-.612-.613v-.123a.613.613 0 011.224 0v.123a.612.612 0 01-.612.601v.012zm0-5.088a.567.567 0 01-.612-.552v-.123a.613.613 0 011.224 0 .662.662 0 01-.612.662v.013zm0-4.966a.612.612 0 01-.612-.613v-.123a.613.613 0 011.224 0v.123a.612.612 0 01-.612.601v.012zm0-5.088a.567.567 0 01-.612-.552v-.184a.61.61 0 01.612-.613.612.612 0 01.612.613.662.662 0 01-.612.723v.013zm0-5.027a.567.567 0 01-.612-.552v-.123a.613.613 0 011.224 0 .662.662 0 01-.612.662v.013zm0-4.966a.616.616 0 01-.612-.613v-.123a.613.613 0 011.224 0v.123a.616.616 0 01-.612.601v.012zm0-5.088a.568.568 0 01-.562-.328.564.564 0 01-.05-.224v-.123a.613.613 0 011.224 0 .662.662 0 01-.612.663v.012zm0-4.966a.611.611 0 01-.612-.613v-.123a.613.613 0 011.224 0v.123a.614.614 0 01-.612.601v.012zm0-5.088a.568.568 0 01-.562-.328.564.564 0 01-.05-.224v-.122a.614.614 0 011.045-.434c.115.115.18.271.18.434a.661.661 0 01-.613.662v.012zm0-4.966a.611.611 0 01-.612-.613v-.122a.614.614 0 011.045-.434c.115.115.18.271.18.434v.122a.614.614 0 01-.613.552v.061zm0-5.027a.611.611 0 01-.612-.613v-.122a.614.614 0 011.045-.434c.115.115.18.271.18.434v.122a.613.613 0 01-.613.601v.012zm0-5.088a.55.55 0 01-.426-.143.55.55 0 01-.186-.409v-.122a.614.614 0 011.045-.434c.115.115.18.271.18.434a.661.661 0 01-.613.662v.012zm0-4.904a.612.612 0 01-.612-.613v-.123a.612.612 0 111.224 0v.123a.611.611 0 01-.612.539v.074zm0-5.027a.612.612 0 01-.612-.613v-.245a.614.614 0 011.045-.434c.115.115.18.271.18.434v.122a.614.614 0 01-.613.662v.074zm0-5.027a.612.612 0 01-.612-.613v-.123a.613.613 0 011.224 0v.123a.611.611 0 01-.612.539v.074zm0-5.027a.612.612 0 01-.612-.613v-.123a.613.613 0 011.224 0v.123a.611.611 0 01-.612.539v.074zm0-5.088a.567.567 0 01-.612-.552v-.123a.613.613 0 011.224 0 .66.66 0 01-.612.601v.074zm0-4.905a.611.611 0 01-.612-.613v-.122a.614.614 0 011.045-.434c.115.115.18.271.18.434v.122a.61.61 0 01-.613.478v.135zm0-5.027a.611.611 0 01-.612-.613v-.122a.614.614 0 011.045-.434c.115.115.18.271.18.434v.122a.61.61 0 01-.613.478v.135zm0-5.027a.611.611 0 01-.612-.613v-.122a.614.614 0 011.045-.434c.115.115.18.271.18.434v.122a.611.611 0 01-.613.429v.184zm0-5.027a.611.611 0 01-.612-.613v-.122a.614.614 0 011.045-.434c.115.115.18.271.18.434v.122a.61.61 0 01-.613.479v.134zm0-5.088a.565.565 0 01-.612-.552v-.122a.614.614 0 011.045-.434c.115.115.18.271.18.434a.66.66 0 01-.613.539v.135zm0-4.904a.612.612 0 01-.612-.613v-.123a.613.613 0 011.224 0v.123a.61.61 0 01-.612.417v.196zm0-5.027a.612.612 0 01-.612-.613v-.368a.612.612 0 111.224 0v.123a.611.611 0 01-.612.662v.196zm0-5.027a.612.612 0 01-.612-.613v-.123a.613.613 0 011.224 0v.123a.61.61 0 01-.612.417v.196zm0-5.027a.612.612 0 01-.612-.613v-.123a.613.613 0 011.224 0v.123a.616.616 0 01-.612.417v.196zm0-5.088a.567.567 0 01-.612-.552v-.123a.613.613 0 011.224 0 .66.66 0 01-.612.479v.196zm0-4.905a.611.611 0 01-.612-.613v-.122a.614.614 0 011.045-.434c.115.115.18.271.18.434v.122a.613.613 0 01-.613.356v.257zm0-5.027a.611.611 0 01-.612-.613v-.122a.614.614 0 011.045-.434c.115.115.18.271.18.434v.122a.613.613 0 01-.613.356v.257zm0-5.027a.611.611 0 01-.612-.613v-.122a.614.614 0 011.045-.434c.115.115.18.271.18.434v.122a.607.607 0 01-.612.307v.306zm0-5.026a.612.612 0 01-.612-.614v-.122a.614.614 0 011.045-.434c.115.115.18.271.18.434v.122a.613.613 0 01-.613.356v.258zm0-5.089a.565.565 0 01-.612-.551v-.123a.614.614 0 011.045-.434c.115.115.18.271.18.434a.659.659 0 01-.613.417v.257zm0-4.904a.612.612 0 01-.612-.613v-.123a.613.613 0 011.224 0v.123a.617.617 0 01-.612.294v.319zm0-5.027a.612.612 0 01-.612-.613v-.49a.614.614 0 011.045-.434c.115.115.18.271.18.434v.122a.614.614 0 01-.613.662v.319zm0-5.027a.612.612 0 01-.612-.613v-.123a.613.613 0 011.224 0v.123a.61.61 0 01-.612.294v.319zm0-5.027a.611.611 0 01-.612-.613v-.123a.613.613 0 011.224 0v.123a.61.61 0 01-.612.294v.319zm2.364-3.678a.612.612 0 01-.294-1.14l.098-.062a.616.616 0 01.782.251.613.613 0 01-.17.804h-.11a.554.554 0 01-.306-.147v.294zm4.433-2.538a.627.627 0 01-.636-.508.576.576 0 01.27-.596h.097a.619.619 0 01.719-.001.624.624 0 01.25.431.613.613 0 01-.356.625.702.702 0 01-.344-.245v.294zm4.36-2.452a.599.599 0 01-.538-.282.57.57 0 01.002-.653.56.56 0 01.17-.157l.11-.061a.627.627 0 01.832.233.606.606 0 01-.048.68.598.598 0 01-.184.154.649.649 0 01-.343-.258v.344zm4.3-2.452a.624.624 0 01-.54-.319.627.627 0 01.233-.834l.11-.061a.61.61 0 01.805.249.612.612 0 01-.204.817l-.098.062a.726.726 0 01-.306-.233v.319zm4.42-2.551a.617.617 0 01-.538-.282.56.56 0 01.002-.653.567.567 0 01.17-.156l.11-.061a.61.61 0 01.804.249.612.612 0 01-.204.817.643.643 0 01-.343-.233v.319zm4.361-2.452a.617.617 0 01-.539-.282.559.559 0 01.002-.653.567.567 0 01.17-.156l.11-.061a.61.61 0 01.865.698.612.612 0 01-.265.368.649.649 0 01-.343-.269v.355zm4.299-2.452a.615.615 0 01-.585-.454.613.613 0 01.279-.686h.11a.585.585 0 01.463-.066.593.593 0 01.37.286.626.626 0 01-.22.846h-.11a.658.658 0 01-.307-.269v.343zm4.433-2.538a.628.628 0 01-.636-.508.577.577 0 01.269-.596h.098a.626.626 0 01.845.221.64.64 0 01-.233.846.886.886 0 01-.343-.306v.343zm4.361-2.452a.624.624 0 01-.637-.508.575.575 0 01.1-.44.572.572 0 01.169-.156h.11a.616.616 0 01.805.249.614.614 0 01-.204.818.698.698 0 01-.343-.343v.38zm4.298-2.452a.628.628 0 01-.538-.307.638.638 0 01.232-.846h.098a.638.638 0 01.845.233.624.624 0 01-.232.834h-.098a.58.58 0 01-.307-.282v.368zm4.422-2.551a.599.599 0 01-.539-.282.562.562 0 01.171-.809h.111a.627.627 0 01.832.233.596.596 0 01.061.466.595.595 0 01-.293.368.649.649 0 01-.343-.344v.368zm4.36-2.452a.618.618 0 01-.63-.493.562.562 0 01.263-.598l.11-.061a.61.61 0 01.865.698.613.613 0 01-.265.368.65.65 0 01-.343-.318v.404zm4.299-2.452a.61.61 0 01-.585-.454.607.607 0 01.279-.686l.11-.062a.612.612 0 01.839.227.615.615 0 01-.227.84h-.11a.662.662 0 01-.306-.257v.392zM151.6 140.951a.591.591 0 01-.539-.295.548.548 0 01.003-.644.558.558 0 01.168-.153l.098-.061a.623.623 0 01.232-.104.626.626 0 01.487.103.606.606 0 01.25.431.62.62 0 01-.152.474.62.62 0 01-.204.151.672.672 0 01-.343.098zm-2.009-1.484a.612.612 0 01-.612-.613v-.123a.612.612 0 111.224 0v.123a.611.611 0 01-.612.613zm6.356-1.042a.619.619 0 01-.551-.282.591.591 0 01.172-.809l.11-.062a.613.613 0 01.833.233.607.607 0 01.066.464.605.605 0 01-.287.37.667.667 0 01-.391.086h.048zm4.348-2.452a.641.641 0 01-.551-.282.58.58 0 01.006-.651.556.556 0 01.166-.158h.11a.611.611 0 01.895.688.625.625 0 01-.283.378.704.704 0 01-.343-.037v.062zm-10.704-1.472a.612.612 0 01-.612-.613v-.122a.613.613 0 111.224 0v.122a.613.613 0 01-.612.577v.036zm15.052-1.042a.639.639 0 01-.551-.282.562.562 0 01.172-.809l.11-.061a.61.61 0 01.851.685.61.61 0 01-.239.369.727.727 0 01-.343.037v.061zm4.275-2.452a.607.607 0 01-.585-.454.607.607 0 01.024-.39.607.607 0 01.254-.296l.111-.061a.61.61 0 01.851.685.61.61 0 01-.239.369l-.11.061a.55.55 0 01-.306.013v.073zm-19.327-1.52a.613.613 0 01-.612-.613.662.662 0 01.612-.675.565.565 0 01.612.552v.123a.61.61 0 01-.612.539v.074zm23.736-1.055a.599.599 0 01-.539-.282.562.562 0 01.171-.809h.111a.613.613 0 01.832.221.622.622 0 01-.22.846.715.715 0 01-.355-.074v.098zm4.348-2.513a.615.615 0 01-.539-.282.573.573 0 01-.091-.442.564.564 0 01.262-.367h.11a.611.611 0 01.895.688.623.623 0 01-.282.378.711.711 0 01-.355-.012v.037zm-28.084-1.459a.613.613 0 01-.612-.613v-.123a.612.612 0 111.224 0v.123a.61.61 0 01-.612.539v.074zm32.37-1.006a.646.646 0 01-.734-.946.648.648 0 01.391-.304h.111a.601.601 0 01.486-.104.6.6 0 01.232.103.607.607 0 01.225.684.617.617 0 01-.331.371h-.11a.579.579 0 01-.27.172v.024zm4.409-2.574a.588.588 0 01-.539-.282.556.556 0 01.172-.797h.098a.623.623 0 01.845.22.611.611 0 01-.22.834.722.722 0 01-.356-.049v.074zm-36.742-1.447a.612.612 0 01-.613-.613v-.123a.613.613 0 011.225 0v.123a.609.609 0 01-.649.539l.037.074zm41.127-1.067a.618.618 0 01-.63-.493.562.562 0 01.263-.598h.098a.626.626 0 01.845.233.613.613 0 01-.233.834.653.653 0 01-.38-.049l.037.073zm4.287-2.452a.629.629 0 01-.539-.306.625.625 0 01.232-.834l.098-.062a.627.627 0 01.845.221.64.64 0 01-.232.846h-.098a.696.696 0 01-.343.049l.037.086zm4.409-2.562a.592.592 0 01-.539-.295.547.547 0 01.003-.644.558.558 0 01.168-.153h.098a.629.629 0 01.487-.104.614.614 0 01.126 1.159.67.67 0 01-.38-.049l.037.086z"/>
  <path fill="#E8F2FE" d="M456.869 112.677l-44.446 25.748c-3.245 1.864-8.953 1.631-12.701-.527l-42.621-24.645c-3.748-2.157-4.152-5.468-.918-7.356l44.458-25.748c3.233-1.876 8.953-1.63 12.688.527l42.634 24.669c3.736 2.146 4.152 5.456.906 7.332z"/>
  <path fill="url(#paint4_linear)" d="M459 270.56V110.078a4.043 4.043 0 01-2.131 2.599l-44.446 25.748a11.481 11.481 0 01-5.903 1.226v161.623a11.491 11.491 0 005.903-1.226l44.446-25.687a3.573 3.573 0 001.71-1.538 3.589 3.589 0 00.421-2.263z"/>
  <path fill="#DDD" d="M399.723 137.849l-42.622-24.645a5.644 5.644 0 01-3.037-3.592v160.507c-.331 1.606.71 3.396 3.037 4.745l42.622 24.632a14.686 14.686 0 006.797 1.778v-161.66a14.78 14.78 0 01-6.797-1.765z"/>
  <path fill="url(#paint5_linear)" d="M399.723 137.849l-42.622-24.645a5.644 5.644 0 01-3.037-3.592v160.507c-.331 1.606.71 3.396 3.037 4.745l42.622 24.632a14.686 14.686 0 006.797 1.778v-161.66a14.78 14.78 0 01-6.797-1.765z"/>
  <path fill="#2C2C96" d="M443.471 127.697c0 9.109-4.826 14.149-11.672 13.487a8.673 8.673 0 01-5.267-1.361L369.728 107c-.465-.282-.93-.588-1.384-.919-9.577-6.646-17.048-20.304-17.048-31.658 0-11.035 7.091-16.098 16.289-12.26 1.384-7.847 7.936-10.618 15.812-6.131a28.955 28.955 0 017.348 6.24c4.177-3.555 10.57-3.678 17.735.467 10.753 6.216 19.767 20.046 22.168 33.018a15.088 15.088 0 015.891 10.888c4.213 6.51 6.932 14.198 6.932 21.052z"/>
  <path fill="#5858F0" d="M448.774 99.644a15.052 15.052 0 00-5.891-10.888c-2.45-12.972-11.415-26.802-22.168-33.018-6.296-3.678-12.003-3.985-16.13-1.594l-1.74.993a28.424 28.424 0 00-7.164-6.13c-4.458-2.587-8.488-2.808-11.403-1.104l-10.373 5.959a9.79 9.79 0 00-4.593 1.14l-12.162 6.964c2.792-1.471 6.405-1.483 10.41.172 1.384-7.847 7.937-10.618 15.812-6.13a28.918 28.918 0 017.348 6.24c4.177-3.555 10.57-3.678 17.735.466 10.753 6.216 19.767 20.047 22.156 33.019a15.053 15.053 0 015.903 10.887c4.262 6.474 6.981 14.162 6.981 21.015 0 6.204-2.241 10.508-5.83 12.421l12.174-6.964c3.674-1.876 5.94-6.217 5.94-12.494-.024-6.793-2.743-14.468-7.005-20.954z"/>
  <path fill="#fff" d="M377.162 98.908c0 2.244-1.58 3.151-3.515 2.036a7.81 7.81 0 01-3.515-6.13c0-2.245 1.58-3.152 3.515-2.036a7.797 7.797 0 013.515 6.13zM388.124 105.247c0 2.244-1.568 3.151-3.515 2.035a7.778 7.778 0 01-3.503-6.13c0-2.244 1.568-3.151 3.503-2.035a7.77 7.77 0 013.515 6.13zM399.085 111.586c0 2.244-1.567 3.151-3.503 2.023a7.737 7.737 0 01-3.515-6.13c0-2.244 1.568-3.151 3.515-2.036a7.793 7.793 0 013.503 6.143zM410.059 117.925c0 2.244-1.58 3.151-3.515 2.023a7.752 7.752 0 01-3.515-6.13c0-2.244 1.568-3.152 3.515-2.036a7.792 7.792 0 013.515 6.143zM421.021 124.264c0 2.231-1.58 3.151-3.515 2.023a7.787 7.787 0 01-3.515-6.131c0-2.231 1.58-3.151 3.515-2.023a7.793 7.793 0 013.515 6.131z"/>
  <path fill="#E8F2FE" d="M457.396 389.858l-81.409 45.648c-3.613 2.084-9.97 1.826-14.134-.577l-27.079-16.172c-4.164-2.452-4.618-6.13-1.017-8.166L414.86 364c3.613-2.084 9.97-1.827 14.134.576l27.386 17.092c4.164 2.428 4.617 6.106 1.016 8.19z"/>
  <path fill="url(#paint6_linear)" d="M459.76 394.959v-7.921a4.5 4.5 0 01-2.364 2.894l-81.409 45.573a12.887 12.887 0 01-6.565 1.398v9.257a12.765 12.765 0 006.565-1.385l81.409-45.648a4.001 4.001 0 002.364-4.168z"/>
  <path fill="url(#paint7_linear)" d="M361.853 434.929l-27.079-16.172a6.324 6.324 0 01-3.381-4.009v7.994c-.367 1.79.797 3.776 3.381 5.272l27.079 16.172a16.235 16.235 0 007.569 1.974v-9.257a16.377 16.377 0 01-7.569-1.974z"/>
  <path fill="#E8F2FE" d="M476.881 310.874L235.385 450.145c-10.9 6.29-30.068 5.554-42.621-1.802L45.463 363.571C32.897 356.3 31.525 345.18 42.4 338.927L288.06 201.74c10.888-6.29 30.068-5.493 42.634 1.778L473.82 286.23c12.565 7.27 13.986 18.354 3.061 24.644z"/>
  <path fill="url(#paint8_linear)" d="M484.01 308.814v-6.658c-.661 3.286-3.025 6.339-7.128 8.718L235.385 450.145c-5.229 3.016-12.382 4.365-19.792 4.181v10.52c7.349.171 14.563-1.165 19.792-4.193l241.497-139.259c5.683-3.298 7.998-7.921 7.128-12.58z"/>
  <path fill="#C9C9C9" d="M192.763 448.343l-147.3-84.772c-5.99-3.47-9.407-7.81-10.19-12.077v6.658c-1.103 5.407 2.376 11.402 10.19 15.939l147.3 84.796a49.022 49.022 0 0022.83 5.959v-10.52a49.149 49.149 0 01-22.83-5.983z"/>
  <path fill="url(#paint9_linear)" d="M192.763 448.343l-147.3-84.772c-5.99-3.47-9.407-7.81-10.19-12.077v6.658c-1.103 5.407 2.376 11.402 10.19 15.939l147.3 84.796a49.022 49.022 0 0022.83 5.959v-10.52a49.149 49.149 0 01-22.83-5.983z"/>
  <path fill="#fff" d="M250.045 387.59l-50.423 29.144-128.28-74.215 50.423-29.144 128.28 74.215z"/>
  <path fill="url(#paint10_linear)" d="M250.046 387.59v20.954l-50.423 29.144v-20.954l50.423-29.144z"/>
  <path fill="url(#paint11_linear)" d="M71.342 342.519v20.954l128.28 74.215v-20.954l-128.28-74.215z"/>
  <path fill="#9CE3F0" d="M145.341 335.849l-22.131 12.788a7.03 7.03 0 01-6.32-.269l-21.213-12.261c-1.861-1.079-2.07-2.722-.453-3.679l22.119-12.788a7.043 7.043 0 016.32.27l21.225 12.261c1.862 1.103 2.058 2.746.453 3.678z"/>
  <path fill="#39C2D1" d="M146.394 344.309v-9.808a1.988 1.988 0 01-1.053 1.299l-22.131 12.788a5.67 5.67 0 01-2.927.613v10.336a5.675 5.675 0 002.927-.625l22.131-12.788c.347-.15.636-.407.825-.734.19-.326.27-.705.228-1.081z"/>
  <path fill="#20A8AF" d="M116.891 348.368l-21.213-12.261a2.836 2.836 0 01-1.519-1.79v9.808c-.16.797.355 1.692 1.519 2.354l21.213 12.261a7.5 7.5 0 003.392.883v-10.336a7.192 7.192 0 01-3.392-.919z"/>
  <path fill="#FF9100" d="M184.362 358.483l-22.132 12.788a7.036 7.036 0 01-6.319-.27l-21.213-12.261c-1.862-1.079-2.07-2.722-.453-3.678l22.131-12.788a7.074 7.074 0 016.32.257l21.212 12.261c1.862 1.116 2.07 2.82.454 3.691z"/>
  <path fill="#D87600" d="M185.415 366.943v-9.809a1.999 1.999 0 01-1.053 1.3l-22.131 12.788a5.658 5.658 0 01-2.927.613v10.324a5.658 5.658 0 002.927-.613l22.131-12.789a1.762 1.762 0 001.053-1.814z"/>
  <path fill="#BC6200" d="M155.899 371.001l-21.213-12.261a2.762 2.762 0 01-1.506-1.79v9.809c-.172.797.343 1.692 1.506 2.354l21.213 12.261a7.198 7.198 0 003.392.882v-10.323a7.188 7.188 0 01-3.392-.932z"/>
  <path fill="#FFEC00" d="M224.203 381.435l-22.131 12.788a7.03 7.03 0 01-6.32-.27l-21.213-12.26c-1.861-1.079-2.07-2.722-.453-3.679l22.119-12.788a7.076 7.076 0 016.32.258l21.225 12.261c1.861 1.115 2.07 2.758.453 3.69z"/>
  <path fill="#D6C100" d="M225.256 389.895v-9.809a1.999 1.999 0 01-1.053 1.3l-22.131 12.837a5.8 5.8 0 01-2.927.613v10.324a5.682 5.682 0 002.927-.613l22.131-12.788a1.767 1.767 0 001.053-1.864z"/>
  <path fill="#938100" d="M195.752 393.954l-21.212-12.261a2.832 2.832 0 01-1.519-1.79v9.808c-.159.797.355 1.692 1.519 2.354l21.212 12.261a7.192 7.192 0 003.393.883v-10.324a7.202 7.202 0 01-3.393-.931z"/>
  <path fill="#fff" d="M433.256 294.211c18.845 0 34.122-8.826 34.122-19.715s-15.277-19.715-34.122-19.715-34.122 8.826-34.122 19.715 15.277 19.715 34.122 19.715z"/>
  <path fill="url(#paint12_linear)" d="M457.383 288.436c-13.325 7.7-34.929 7.7-48.255 0-6.613-3.825-9.945-8.827-9.982-13.83v21.187c0 5.088 3.271 10.176 9.982 14.051 13.326 7.7 34.93 7.7 48.255 0 6.7-3.875 10.031-8.963 9.982-14.051v-21.187c-.049 5.003-3.368 10.005-9.982 13.83z"/>
  <path fill="#76B5CE" d="M433.256 259.525l20.821 12.053c-11.427 6.596-30.239 6.596-41.642 0-11.402-6.596-11.439-17.484 0-24.093 6.381-3.678 15.346-5.48 24.312-4.904l-3.491 16.944z"/>
  <path fill="#20A8AF" d="M412.423 271.516c-5.695-3.285-8.573-7.626-8.573-11.978v12.126c0 4.389 2.829 8.778 8.573 12.101 11.427 6.609 30.239 6.609 41.642 0v-12.261c-11.403 6.621-30.215 6.621-41.642.012z"/>
  <path fill="#9CE3F0" d="M433.256 259.525l20.821 12.053c-11.427 6.596-30.239 6.596-41.642 0-11.402-6.596-11.439-17.484 0-24.093 6.381-3.678 15.346-5.48 24.312-4.904l-3.491 16.944z"/>
  <path fill="#FF9100" d="M433.256 247.019l3.478-16.92a40.964 40.964 0 0117.355 4.905c11.427 6.608 11.427 17.484 0 24.092l-20.833-12.077z"/>
  <path fill="#BC6200" d="M433.256 247.019v12.457l20.833 12.04v-12.457l-20.833-12.04z"/>
  <path fill="#D87600" d="M462.65 271.602v-24.46c0 4.328-2.903 8.582-8.573 11.917v24.706c5.781-3.335 8.634-7.749 8.573-12.163z"/>
  <path fill="#fff" d="M363.078 240.619l-48.488-28.028c-5.732-3.311-5.022-9.098 1.604-12.923 6.614-3.825 16.62-4.242 22.352-.932l48.5 28.041c5.732 3.31 5.009 9.097-1.604 12.923-6.638 3.886-16.632 4.242-22.364.919z"/>
  <path fill="url(#paint13_linear)" d="M385.442 239.7c-6.614 3.825-16.632 4.242-22.364.919l-48.488-28.028c-2.45-1.435-3.772-3.347-3.87-5.358v14.284a.416.416 0 010 .122c0 2.06 1.322 4.022 3.87 5.493l48.488 28.029c5.732 3.31 15.75 2.893 22.364-.932 3.735-2.158 5.597-4.905 5.462-7.553v-14.419c.061 2.587-1.788 5.309-5.462 7.443z"/>
  <path fill="#BDCEFA" d="M335.251 208.373a9.945 9.945 0 01-9.002 0c-2.449-1.434-2.449-3.764 0-5.211a9.944 9.944 0 019.002 0c2.487 1.447 2.487 3.777 0 5.211zM349.312 216.49a9.883 9.883 0 01-9.002 0c-2.45-1.435-2.45-3.764 0-5.199a9.957 9.957 0 019.002 0c2.547 1.435 2.547 3.764 0 5.199zM363.36 224.619a9.963 9.963 0 01-9.002 0c-2.45-1.435-2.45-3.764 0-5.211a9.945 9.945 0 019.002 0c2.486 1.447 2.486 3.776 0 5.211zM377.42 232.736a9.883 9.883 0 01-9.002 0c-2.45-1.435-2.45-3.765 0-5.199a9.945 9.945 0 019.002 0c2.486 1.434 2.486 3.789 0 5.199z"/>
  <path fill="#F9AB83" d="M342.759 215.386a3.13 3.13 0 003.613-2.525l3.062-17.35a3.123 3.123 0 00-2.523-3.604 3.108 3.108 0 00-3.601 2.513l-3.061 17.288a3.143 3.143 0 001.369 3.222c.347.226.734.381 1.141.456z"/>
  <path fill="#F9AB83" d="M328.871 216.453a3.108 3.108 0 003.894 2.035l10.717-3.126a3.13 3.13 0 002.903-3.311 3.115 3.115 0 00-3.295-2.906l-12.248 3.409a3.114 3.114 0 00-1.971 3.899z"/>
  <path fill="#010400" d="M361.118 267.887c0 .417-.294.773-.845 1.128-.159.098 0-2.231-.514-1.851-.16.11-7.655 5.946-11.832 4.904a.892.892 0 01-.624-.907v-.944c0-1.055 1.519-2.673 3.919-5.015 2.633-2.575 4.323-4.181 8.267-1.9 1.127.65 1.58 1.14 1.58 1.557l.049 3.028z"/>
  <path fill="#484968" d="M351.222 265.178c-3.196 3.114-4.899 4.904-3.294 5.897 1.604.993 4.899-.478 8.267-3.016 2.939-2.232 7.238-2.452 3.294-4.782-3.943-2.329-5.634-.674-8.267 1.901z"/>
  <path fill="#F1AC85" d="M354.431 263.694l.233-28.715 9.479 3.078-1.628 4.671a34.638 34.638 0 01-1.225 12.592s-1.347 2.759-1.078 9.196c.024 0-3.454 1.986-5.781-.822z"/>
  <path fill="#010400" d="M351.957 260.359c0 .417-.282.772-.833 1.128-.159.098 0-2.244-.526-1.851-.16.11-7.643 5.946-11.819 4.904a.9.9 0 01-.625-.907v-.944c-.061-1.055 1.519-2.673 3.919-5.015 2.634-2.575 4.311-4.181 8.255-1.901 1.139.65 1.58 1.141 1.592 1.558l.037 3.028z"/>
  <path fill="#484968" d="M342.061 257.65c-3.197 3.114-4.899 4.904-3.295 5.897 1.604.993 4.899-.478 8.267-3.016 2.94-2.232 7.238-2.452 3.282-4.782-3.955-2.329-5.609-.674-8.254 1.901z"/>
  <path fill="#E28C66" d="M345.27 256.166l.232-28.715 9.492 3.078-1.629 4.671a34.595 34.595 0 01-1.225 12.592s-1.347 2.759-1.09 9.196c.025 0-3.453 1.986-5.78-.822z"/>
  <path fill="#9CE3F0" d="M367.487 228.273v10.605s-12.407 4.193-24.079-10.605V218.01l24.079 10.263z"/>
  <path fill="#54A5F8" d="M361.657 232.355a.87.87 0 01-.404.135c-2.07.16-9.553-1.471-17.036-9.907a3.9 3.9 0 01-1.017-2.452v-23.933a3.962 3.962 0 011.678-3.678l5.634-3.286a3.97 3.97 0 014.005.368l7.679 4.438a12.526 12.526 0 015.634 9.809v24.092a1.227 1.227 0 01-.551 1.153l-5.622 3.261z"/>
  <path fill="#DD936F" d="M359.416 195.536a1.946 1.946 0 01-1.164 1.655 6.185 6.185 0 01-5.609 0 1.952 1.952 0 01-1.151-1.655v-5.211a1.947 1.947 0 011.151-1.655 6.186 6.186 0 015.609 0 1.943 1.943 0 011.164 1.655v5.211z"/>
  <path fill="#F9AB83" d="M359.097 188.143c0 1.299.919 1.827 2.046 1.226a4.532 4.532 0 002.045-3.544c0-1.299-.919-1.839-2.045-1.226a4.521 4.521 0 00-2.046 3.544z"/>
  <path fill="#3F4893" d="M348.454 202.206s-10.557-9.613-4.115-26.729l4.899 17.766-.784 8.963z"/>
  <path fill="#F1AC85" d="M358.022 192.587c5.871-1.392 9.503-7.286 8.112-13.163-1.391-5.878-7.278-9.513-13.15-8.121-5.871 1.393-9.502 7.286-8.111 13.164 1.391 5.877 7.278 9.513 13.149 8.12z"/>
  <path fill="#3F4893" d="M352.263 202.206s8.132-8.963 2.449-25.564l-10.116 3.482s-3.491-8.582 7.961-11.12c0 0 7.618-1.668 10.275 4.646 0 0 6.124.503 3.809 13.12.049 0-.281 11.954-14.378 15.436z"/>
  <path fill="#F9AB83" d="M359.44 222.351a3.121 3.121 0 003.834-2.171l4.813-17.925a3.14 3.14 0 00-2.168-3.838 3.11 3.11 0 00-3.821 2.17l-4.813 17.926a3.126 3.126 0 002.155 3.838z"/>
  <path fill="#F9AB83" d="M342.061 222.976a3.136 3.136 0 003.674 2.391l14.464-2.943c.408.013.815-.055 1.197-.199a3.086 3.086 0 001.73-1.634 3.117 3.117 0 00-.576-3.407 3.11 3.11 0 00-2.167-.976l-15.922 3.077a3.111 3.111 0 00-2.4 3.691z"/>
  <path fill="#fff" d="M145.66 296.148V188.792a7.606 7.606 0 013.809-6.596l128.905-74.497a7.616 7.616 0 017.614-.002 7.626 7.626 0 013.813 6.599v107.356a7.634 7.634 0 01-3.809 6.596l-128.869 74.497a7.598 7.598 0 01-10.449-2.764 7.612 7.612 0 01-1.014-3.833z"/>
  <path fill="#2C2C96" d="M153.278 301.212a5.08 5.08 0 01-3.582-1.49 5.09 5.09 0 01-1.489-3.586V188.793a5.078 5.078 0 012.535-4.377l128.856-74.473a4.996 4.996 0 012.45-.686 5.08 5.08 0 013.582 1.49 5.09 5.09 0 011.488 3.586v107.356a5.059 5.059 0 01-2.523 4.377L155.8 300.538a5.03 5.03 0 01-2.522.674z"/>
  <path fill="url(#paint14_linear)" d="M145.66 296.149V188.793a7.607 7.607 0 013.809-6.597l128.905-74.497a7.5 7.5 0 016.516-.515l-3.05-1.618a7.55 7.55 0 00-8.365-.527l-128.917 74.509a7.654 7.654 0 00-3.809 6.609v107.356a7.484 7.484 0 003.135 6.13h.086a8.07 8.07 0 001.629.883l3.404 1.839a7.493 7.493 0 01-3.343-6.216z"/>
  <path fill="#fff" d="M157.123 315.925l92.873 53.678a7.592 7.592 0 007.606 0l128.856-74.521a7.61 7.61 0 003.807-6.596 7.618 7.618 0 00-3.807-6.597l-92.873-53.678a7.602 7.602 0 00-7.606 0l-128.856 74.534a7.625 7.625 0 00-3.784 6.59 7.632 7.632 0 003.784 6.59z"/>
  <path fill="url(#paint15_linear)" d="M386.458 295.082l-128.905 74.546a7.602 7.602 0 01-7.606 0l-92.824-53.703a7.57 7.57 0 01-3.809-6.596v6.964a7.524 7.524 0 003.809 6.621l92.873 53.678a7.602 7.602 0 007.606 0l128.905-74.497a7.535 7.535 0 003.785-6.253v-7.038a7.522 7.522 0 01-3.834 6.278zm3.785-6.94a.154.154 0 000 .074v-.074z"/>
  <path fill="#B8D0F6" d="M338.387 274.067l-110.669 63.928c-4.323 2.452-11.855 2.182-16.852-.699l-33.314-19.262c-4.984-2.881-5.523-7.246-1.224-9.735l110.693-63.977c4.311-2.452 11.855-2.182 16.84.699l33.301 19.311c5.022 2.881 5.56 7.234 1.225 9.735z"/>
  <path fill="#99B6E0" d="M176.34 309.881l110.693-63.977c4.311-2.453 11.855-2.183 16.84.698l33.289 19.262c2.376 1.373 3.674 3.078 4.041 4.757.441-2.133-.943-4.499-4.041-6.289l-33.326-19.262c-4.985-2.881-12.529-3.188-16.84-.699l-110.693 63.977c-2.266 1.3-3.172 3.127-2.829 4.978a5.385 5.385 0 012.866-3.445z"/>
  <path fill="#99B6E0" d="M265.673 273.626l-5.866-3.384-5.867 3.384 5.867 3.396 5.866-3.396zm-11.537 6.669l-5.866-3.384-5.867 3.384 5.867 3.397 5.866-3.397zm23.075-13.339l-5.867-3.384-5.867 3.384 5.867 3.396 5.867-3.396zm33.521 3.555l12.248-7.062-5.867-3.396-12.248 7.062 5.867 3.396zm2.315-12.8l-5.879-3.384-5.867 3.384 5.867 3.396 5.879-3.396zm-24.287 2.575l-5.879-3.384-5.866 3.384 5.866 3.396 5.879-3.396zm-46.161 26.679l-5.866-3.396-5.867 3.396 5.867 3.397 5.866-3.397zm60.27-18.685l-101.164 58.46 5.866 3.396 101.152-58.46-5.854-3.396zm-71.795 25.355l-5.866-3.396-5.879 3.396 5.879 3.396 5.866-3.396zm67.153-34.109l-106.443 61.488 5.879 3.396 106.431-61.525-5.867-3.359zm28.782 6.289l-115.384 66.663 5.867 3.384 115.384-66.687-5.867-3.36zm-119.021 41.197l-5.879-3.396-5.867 3.396 5.867 3.396 5.879-3.396zm11.537-6.67l-5.867-3.396-5.879 3.396 5.879 3.396 5.867-3.396z"/>
  <path fill="#E4F2FF" d="M265.673 272.608l-5.866-3.397-5.867 3.397 5.867 3.396 5.866-3.396zm-11.537 6.67l-5.866-3.397-5.867 3.397 5.867 3.396 5.866-3.396zm23.075-13.34l-5.867-3.396-5.867 3.396 5.867 3.396 5.867-3.396zm33.521 3.555l12.248-7.074-5.867-3.384-12.248 7.062 5.867 3.396zm2.315-12.8l-5.879-3.396-5.867 3.396 5.867 3.396 5.879-3.396zm-24.287 2.575l-5.879-3.396-5.866 3.396 5.866 3.396 5.879-3.396zm-46.161 26.68l-5.866-3.397-5.867 3.397 5.867 3.384 5.866-3.384zm60.27-18.698l-101.164 58.484 5.866 3.396 101.152-58.472-5.854-3.408zm-71.807 25.38l-5.867-3.397-5.878 3.397 5.878 3.384 5.867-3.384zm67.165-34.147l-106.443 61.513 5.879 3.384 106.431-61.513-5.867-3.384zm28.782 6.29l-115.384 66.675 5.867 3.396 115.384-66.736-5.867-3.335zM207.988 305.97l-5.879-3.397-5.867 3.397 5.867 3.384 5.879-3.384zm11.537-6.67l-5.867-3.397-5.879 3.397 5.879 3.384 5.867-3.384z"/>
  <path fill="#fff" d="M271.344 263.057l5.426 3.138.441-.257-5.867-3.396-5.867 3.396.441.257 5.426-3.138zm11.537-6.67l5.426 3.138.453-.257-5.879-3.396-5.866 3.396.441.257 5.425-3.138zm-23.074 13.339l5.425 3.139.441-.257-5.866-3.397-5.867 3.397.441.257 5.426-3.139zm45.512-3.371l11.782-6.817 5.425 3.138.441-.257-5.866-3.384-12.248 7.062.466.258zm-57.037 10.041l5.426 3.139.441-.257-5.867-3.397-5.867 3.397.441.257 5.426-3.139zm58.898-22.584l5.487 3.139.441-.258-5.879-3.396-5.866 3.396.441.258 5.376-3.139zm19.841 10.949l-115.396 66.687.441.257 114.943-66.429 5.426 3.139.441-.258-5.855-3.396zm-23.356-2.649l.453-.245-5.878-3.396-106.456 61.525.441.245 106.002-61.304 5.438 3.175zm-101.544 40.964l5.438 3.126.441-.245-5.879-3.396-5.866 3.396.44.245 5.426-3.126zm106.174-32.173l.441-.257-5.867-3.396-101.164 58.484.441.257 100.723-58.226 5.426 3.138zm-94.625 25.503l5.426 3.127.441-.246-5.867-3.396-5.878 3.396.441.246 5.437-3.127zm23.063-13.34l5.425 3.139.441-.257-5.866-3.397-5.867 3.397.441.257 5.426-3.139zm-11.538 6.67l5.414 3.139.441-.258-5.867-3.396-5.879 3.396.453.258 5.438-3.139z"/>
  <path fill="#B8D0F6" d="M329.348 311.634l-34.489 19.936a9.373 9.373 0 01-8.389-.343l-7.569-4.377c-2.45-1.435-2.744-3.678-.613-4.905l34.501-19.936a9.307 9.307 0 018.378.356l7.581 4.377c2.474 1.471 2.743 3.654.6 4.892z"/>
  <path fill="#99B6E0" d="M278.288 323.024l34.501-19.936a9.344 9.344 0 018.378.343l7.581 4.378a3.839 3.839 0 011.959 2.243c.307-1.091-.355-2.341-1.959-3.261l-7.581-4.353a9.322 9.322 0 00-8.378-.355l-34.501 19.973a2.325 2.325 0 00-1.347 2.611 2.663 2.663 0 011.347-1.643z"/>
  <path fill="#fff" d="M268.968 146.787v-3.972c0-3.409-2.388-4.794-5.34-3.09l-91.856 53.065a11.807 11.807 0 00-3.785 3.993 11.836 11.836 0 00-1.568 5.276v3.96l102.549-59.232z"/>
  <g style="mix-blend-mode:overlay">
    <path fill="#fff" d="M175.923 195.487a4.805 4.805 0 01-2.155 3.678c-1.225.687-2.156.123-2.156-1.226a4.767 4.767 0 012.156-3.678c1.188-.699 2.155-.147 2.155 1.226zM183.492 191.11a4.763 4.763 0 01-2.155 3.74c-1.225.686-2.156.122-2.156-1.227a4.771 4.771 0 01.643-2.094 4.746 4.746 0 011.513-1.584c1.188-.76 2.155-.208 2.155 1.165zM191.061 186.745a4.75 4.75 0 01-2.155 3.678c-1.225.687-2.156.135-2.156-1.226a4.779 4.779 0 012.156-3.678c1.188-.711 2.155-.147 2.155 1.226z"/>
  </g>
  <path fill="#FFEC00" d="M182.708 215.828l-16.24 9.392v-14.787l16.24-9.38v14.775z"/>
  <path fill="#FF9100" d="M202.978 204.119l-16.228 9.379v-14.786l16.228-9.38v14.787z"/>
  <path fill="#9CE3F0" d="M223.26 192.397l-16.228 9.38V186.99l16.228-9.379v14.786z"/>
  <path fill="url(#paint16_linear)" d="M228.845 189.16l40.123-23.185v-3.114l-40.123 23.197v3.102z"/>
  <path fill="url(#paint17_linear)" d="M228.845 183.324l40.123-23.185v-3.102l-40.123 23.185v3.102z"/>
  <path fill="url(#paint18_linear)" d="M228.845 177.488l40.123-23.185v-3.102l-40.123 23.185v3.102z"/>
  <path fill="#fff" d="M265.453 199.754l-95.457 55.174c-1.936 1.128-3.528-.074-3.528-2.661v-17.754a8.508 8.508 0 013.528-6.743l95.457-55.174c1.935-1.128 3.515.074 3.515 2.661v17.741a8.513 8.513 0 01-3.515 6.756z"/>
  <path fill="#FFEC00" d="M208.38 228.763l-12.481 7.209V220.56l12.481-7.209v15.412z"/>
  <path fill="#9CE3F0" d="M223.958 219.751l-12.48 7.209v-12.984l12.48-7.209v12.984z"/>
  <path fill="#FF9100" d="M239.549 210.74l-12.48 7.209v-18.931l12.48-7.209v18.931z"/>
  <path fill="url(#paint19_linear)" d="M262.023 195.928l3.344-1.937v-3.102l-3.344 1.937v3.102z"/>
  <path fill="url(#paint20_linear)" d="M262.023 190.092l3.344-1.937v-3.102l-3.344 1.937v3.102z"/>
  <path fill="url(#paint21_linear)" d="M262.023 184.256l3.344-1.937v-3.102l-3.344 1.937v3.102z"/>
  <path fill="url(#paint22_linear)" d="M243.064 206.89l17.343-10.03v-3.102l-17.343 10.017v3.115z"/>
  <path fill="url(#paint23_linear)" d="M243.064 201.054l17.343-10.03v-3.102l-17.343 10.017v3.115z"/>
  <path fill="url(#paint24_linear)" d="M243.064 195.217l17.343-10.017v-3.114l-17.343 10.017v3.114z"/>
  <path fill="url(#paint25_linear)" d="M173.535 232.294l-3.356 1.937v3.115l3.356-1.938v-3.114z"/>
  <path fill="url(#paint26_linear)" d="M173.535 238.13l-3.356 1.937v3.115l3.356-1.938v-3.114z"/>
  <path fill="url(#paint27_linear)" d="M173.535 243.967l-3.356 1.937v3.114l3.356-1.949v-3.102z"/>
  <path fill="url(#paint28_linear)" d="M192.494 221.345l-17.342 10.017v3.102l17.342-10.017v-3.102z"/>
  <path fill="url(#paint29_linear)" d="M192.494 227.181l-17.342 10.018v3.102l17.342-10.018v-3.102z"/>
  <path fill="url(#paint30_linear)" d="M192.494 233.018l-17.342 10.017v3.102l17.342-10.017v-3.102z"/>
  <path fill="#fff" d="M262.146 216.747l-87.301 50.454c-1.812 1.042-3.294-.074-3.294-2.452a7.946 7.946 0 013.294-6.302l87.301-50.454c1.812-1.042 3.294.074 3.294 2.452a7.946 7.946 0 01-3.294 6.302z"/>
  <path fill="url(#paint31_linear)" d="M171.172 281.767l-82.818 47.817c-2.56 1.484-4.666-.098-4.666-3.519v-78.334c0-3.421 2.106-7.43 4.666-8.914l82.818-47.879c2.572-1.471 4.666.111 4.666 3.531v78.384c0 3.421-2.094 7.43-4.666 8.914z"/>
  <g style="mix-blend-mode:overlay">
    <path fill="url(#paint32_linear)" d="M168.624 273.724l-77.723 44.923v-5.836l77.723-44.924v5.837z" style="mix-blend-mode:overlay"/>
    <path fill="url(#paint33_linear)" d="M146.744 261.991c9.385-16.274 9.386-33.863.002-39.287-9.385-5.424-24.6 3.371-33.985 19.645-9.386 16.273-9.386 33.862-.002 39.286 9.384 5.424 24.6-3.371 33.985-19.644z" style="mix-blend-mode:overlay"/>
  </g>
  <path fill="url(#paint34_linear)" d="M341.24 161.598l-82.83 47.879c-2.559 1.471-4.654-.111-4.654-3.532v-61.144c0-3.421 2.095-7.43 4.654-8.914l82.83-47.817c2.56-1.472 4.654.11 4.654 3.53v61.146c0 3.359-2.094 7.368-4.654 8.852z"/>
  <g style="mix-blend-mode:overlay">
    <path fill="url(#paint35_linear)" d="M338.693 151.274l-77.735 44.924v-5.836l77.735-44.924v5.836z" style="mix-blend-mode:overlay"/>
    <path fill="url(#paint36_linear)" d="M338.693 139.32l-77.735 44.924v-5.836l77.735-44.912v5.824z" style="mix-blend-mode:overlay"/>
    <path fill="url(#paint37_linear)" d="M283.408 157.319l-20.87 12.064v-24.129l20.87-12.065v24.13z" style="mix-blend-mode:overlay"/>
    <path fill="url(#paint38_linear)" d="M310.266 141.797l-20.882 12.064v-24.129l20.882-12.065v24.13z" style="mix-blend-mode:overlay"/>
    <path fill="url(#paint39_linear)" d="M337.113 126.274l-20.87 12.065V114.21l20.87-12.065v24.129z" style="mix-blend-mode:overlay"/>
  </g>
  <path fill="#010400" d="M382.478 382.379c-.38.172-.527.638-.563 1.226 0 .197 1.922-1.103 1.849-.441 0 .184-1.409 9.551 1.58 12.653a.857.857 0 001.078.098l.82-.453c.943-.479 1.58-2.636 2.45-5.861.943-3.556 1.506-5.799-2.45-8.117-1.114-.662-1.763-.809-2.119-.613l-2.645 1.508z"/>
  <path fill="#484968" d="M389.716 389.65c-1.127 4.291-1.874 6.707-3.491 5.75-1.616-.956-1.996-4.499-1.433-8.668.478-3.678-1.384-7.504 2.523-5.199 3.907 2.305 3.344 4.561 2.401 8.117z"/>
  <path fill="#E28C66" d="M414.922 362.186l-8.022 2.942-3.258 3.678a34.477 34.477 0 00-10.325 7.21s-1.727 2.538-7.434 5.456c0 0 0 3.997 3.552 4.634l22.878-13.18a5.76 5.76 0 002.854-4.389 25.39 25.39 0 00-.245-6.351z"/>
  <path fill="#2D0D60" d="M398.044 402.659c0 .416.294.772.846 1.115.146.111 0-2.219.514-1.827.159.111 7.618 5.922 11.782 4.905a.897.897 0 00.625-.908v-.931c.061-1.055-1.519-2.673-3.907-5.003-2.621-2.562-4.299-4.168-8.231-1.888-1.126.638-1.58 1.128-1.58 1.545l-.049 2.992z"/>
  <path fill="#484968" d="M407.904 399.961c3.184 3.102 4.899 4.905 3.282 5.873-1.617.969-4.899-.478-8.242-3.004-2.928-2.219-7.202-2.452-3.271-4.757 3.932-2.305 5.61-.674 8.231 1.888z"/>
  <path fill="#F1AC85" d="M404.719 398.478l-.196-28.605-7.789 2.452-.086 5.223a34.372 34.372 0 001.225 12.543s1.347 2.747 1.078 9.159c-.025.049 3.441 2.023 5.768-.772z"/>
  <path fill="#E28C66" d="M425.859 358.385a3.095 3.095 0 01-3.399-.561 3.098 3.098 0 01-.704-.984l-12.248-27.133a3.13 3.13 0 011.544-4.108 3.086 3.086 0 012.371-.078 3.08 3.08 0 011.731 1.623l12.248 27.133a3.12 3.12 0 01-1.543 4.108z"/>
  <path fill="url(#paint40_linear)" d="M427.059 355.295l-19.217-11.096v-15.522l19.217 11.108v15.51z"/>
  <path fill="#A29AFB" d="M422.319 351.114v-11.77l.417.233v11.77l-.417-.233zM421.388 347.093v-8.289l.417.245v8.276l-.417-.232zM420.47 349.128v-10.863l.404.245v10.851l-.404-.233zM419.539 349.495v-11.758l.404.233v11.771l-.404-.246zM418.608 341.502v-4.304l.404.233v4.316l-.404-.245z"/>
  <path fill="#FF9100" d="M391.688 363.179v10.569s12.37 4.18 24.005-10.569v-10.226l-24.005 10.226z"/>
  <path fill="#FFFFEB" d="M397.297 366.452a.875.875 0 00.392.135c2.082.16 9.529-1.459 16.987-9.882a3.902 3.902 0 001.017-2.452v-23.835a3.926 3.926 0 00-1.678-3.679l-5.609-3.285a3.936 3.936 0 00-3.993.367l-7.642 4.426a12.44 12.44 0 00-5.622 9.736v24.019a1.22 1.22 0 00.539 1.14l5.609 3.31z"/>
  <path fill="#DD936F" d="M399.465 329.768a1.959 1.959 0 001.164 1.643 6.211 6.211 0 005.585 0 1.956 1.956 0 001.163-1.643v-5.26a1.957 1.957 0 00-1.163-1.643 6.227 6.227 0 00-5.585 0 1.967 1.967 0 00-1.164 1.643v5.26z"/>
  <path fill="#F9AB83" d="M378.362 363.927a3.119 3.119 0 01-1.359-4.169l13.472-26.753a3.085 3.085 0 014.152-1.361 3.089 3.089 0 011.549 1.8 3.118 3.118 0 01-.177 2.369l-13.521 26.704a3.113 3.113 0 01-4.116 1.41z"/>
  <path fill="#943BBB" d="M413.476 313.302l3.907 15.178a1.768 1.768 0 01-.544 1.789 1.763 1.763 0 01-1.844.296l-9.002-3.752a1.777 1.777 0 01-1.053-1.974l2.951-14.946a1.768 1.768 0 011.425-1.408 1.77 1.77 0 011.04.132c.325.149.597.393.781.7l2.143 3.494c.09.153.157.318.196.491z"/>
  <path fill="#F9AB83" d="M399.796 322.387c0 1.3-.919 1.827-2.046 1.226a4.54 4.54 0 01-2.033-3.531c0-1.3.919-1.827 2.033-1.226a4.504 4.504 0 012.046 3.531z"/>
  <path fill="#F9AB83" d="M403.372 327.083c6.013 0 10.888-4.88 10.888-10.9 0-6.02-4.875-10.9-10.888-10.9s-10.888 4.88-10.888 10.9c0 6.02 4.875 10.9 10.888 10.9z"/>
  <path fill="#943BBB" d="M392.79 317.642s9.198 5.052 13.681-8.092c0 0 2.449 5.554 8.377 4.328 0 0 0-8.644-8.904-10.324 0 0-15.75-1.569-13.154 14.088z"/>
  <path fill="#943BBB" d="M397.861 318.071l3.907 15.191a1.77 1.77 0 01-.561 1.823 1.763 1.763 0 01-1.889.249l-8.989-3.739a1.763 1.763 0 01-1.054-1.987l3.001-14.909a1.78 1.78 0 011.424-1.394 1.77 1.77 0 011.821.806l2.144 3.506c.087.141.153.294.196.454z"/>
  <path fill="#000" d="M310.94 364.687c-.073 1.226 1.837 3.053 4.764 4.745 3.871 2.243 5.255 5.076 10.043 2.305 1.372-.785 1.948-1.423 1.984-1.974v-2.98c.135-1.385-3.196-2.256-5.989-3.862-3.87-2.244-8.046-3.47-10.043-2.317a1.309 1.309 0 00-.759 1.103v2.98z"/>
  <path fill="#2D0D60" d="M315.705 366.416c-3.883-2.244-6.002-4.66-4.005-5.812 1.996-1.153 6.123.073 10.043 2.317 3.919 2.244 8.806 3.029 4.005 5.8-4.802 2.771-6.173-.074-10.043-2.305z"/>
  <path fill="#000" d="M321.718 357.257c-.074 1.226 1.849 3.053 4.764 4.732 3.883 2.244 5.254 5.089 10.043 2.318 1.384-.797 1.947-1.423 1.984-1.974v-2.992c.135-1.385-3.184-2.244-5.977-3.862-3.882-2.244-8.058-3.458-10.055-2.305a1.322 1.322 0 00-.759 1.091v2.992z"/>
  <path fill="#2D0D60" d="M326.482 358.973c-3.882-2.243-5.989-4.659-4.005-5.799 1.985-1.14 6.124.061 10.056 2.305 3.931 2.244 8.793 3.041 3.992 5.812-4.801 2.771-6.16-.074-10.043-2.318z"/>
  <path fill="#FCC4B7" d="M317.456 268.108a3.206 3.206 0 014.397.993l13.227 21.077a3.201 3.201 0 01-.992 4.401 3.208 3.208 0 01-4.397-1.005l-13.239-21.076a3.19 3.19 0 011.004-4.39z"/>
  <path fill="#293677" d="M326.139 291.171l4.262 6.792a4.89 4.89 0 003.074 2.201 4.88 4.88 0 003.724-.644 4.904 4.904 0 001.543-6.804l-4.274-6.793s-5.353-2.023-8.329 5.248z"/>
  <path fill="#55D1FF" d="M327.597 365.422c.146-.301.222-.633.22-.968v-33.301c0-2.109-2.168-3.837-4.825-3.837-2.646 0-4.826 1.728-4.826 3.837v36.268a1.226 1.226 0 00.857 1.165c1.85.502 6.234 1.287 8.574-3.164zM338.387 357.612c.143-.302.214-.634.208-.968l-.735-33.301c0-2.109-2.253-3.776-4.899-3.678-2.657 0-4.788 1.827-4.739 3.923l.796 36.207a1.224 1.224 0 00.881 1.152c1.874.478 6.271 1.19 8.488-3.335z"/>
  <path fill="#5258A6" d="M319.759 337.137a.928.928 0 00.416.134c2.131.16 9.798-1.508 17.453-10.152a3.99 3.99 0 001.041-2.452v-24.521a4.014 4.014 0 00-1.727-3.74l-5.757-3.372a4.027 4.027 0 00-4.115.38l-7.863 4.537a12.84 12.84 0 00-5.768 10.017v24.681a1.232 1.232 0 00.563 1.226l5.757 3.262z"/>
  <path fill="#F1AC85" d="M321.987 299.422a2.023 2.023 0 001.225 1.68 6.357 6.357 0 005.756 0 1.993 1.993 0 001.225-1.68v-5.358a2 2 0 00-1.225-1.68 6.353 6.353 0 00-5.756 0 2.023 2.023 0 00-1.225 1.68v5.358z"/>
  <path fill="#FCC4B7" d="M326.054 296.749c6.182 0 11.194-5.017 11.194-11.206 0-6.189-5.012-11.206-11.194-11.206-6.183 0-11.195 5.017-11.195 11.206 0 6.189 5.012 11.206 11.195 11.206zM306.678 335.089a3.2 3.2 0 01-1.996-4.046l8.426-22.781a3.195 3.195 0 011.607-1.838 3.18 3.18 0 012.435-.16 3.212 3.212 0 011.984 4.046l-8.427 22.78c-.27.8-.846 1.459-1.602 1.833a3.177 3.177 0 01-2.427.166z"/>
  <path fill="#293677" d="M319.514 314.589l2.584-7.602a4.913 4.913 0 00-1.397-5.292 4.907 4.907 0 00-1.665-.961 4.9 4.9 0 00-6.258 3.065l-2.56 7.614s1.776 5.432 9.296 3.176z"/>
  <path fill="#E58800" fill-rule="evenodd" d="M332.361 295.756c-3.527 2.06-6.222.491-7.189-.993-2.45-3.752-2.805-1.226-4.25-3.016-1.886-3.102-1.458-7.356-4.079-9.281-3.747-2.808-2.731-8.399 7.067-10.888 13.154-3.36 18.371 13.229 10.129 22.817a5.17 5.17 0 01-1.678 1.361z" clip-rule="evenodd"/>
  <path fill="#FCC4B7" d="M322.146 292.213a1.222 1.222 0 01-1.437.692 1.223 1.223 0 01-.902-1.317 4.643 4.643 0 011.09-4.046c.943-.945 1.984-.675 2.327.625a4.597 4.597 0 01-1.078 4.046zM265.122 424.397a2.805 2.805 0 01-2.105.48 2.815 2.815 0 01-1.826-1.154l-12.713-18.024a2.8 2.8 0 01-.449-1.006 2.836 2.836 0 01.364-2.13 2.816 2.816 0 012.863-1.274c.737.127 1.393.54 1.827 1.149l12.713 18.023a2.83 2.83 0 01.479 2.108 2.826 2.826 0 01-1.153 1.828z"/>
  <path fill="#BDCEFA" d="M256.328 404.387l-4.102-5.811a4.376 4.376 0 00-4.559-1.759 4.368 4.368 0 00-1.565.704 4.396 4.396 0 00-1.753 4.563c.128.564.365 1.096.7 1.568l4.102 5.811s4.899 1.496 7.177-5.076z"/>
  <path fill="#5258A6" d="M242.023 427.499c.159.251.378.457.637.601l14.893 8.484c1.617.932 3.895 0 5.071-2.023 1.163-2.035.796-4.475-.821-5.394l-17.085-9.809a1.093 1.093 0 00-1.225.147c-1.323 1.189-3.882 4.206-1.47 7.994zM232.188 432.526c.163.244.381.446.637.589l14.857 8.509c1.616.932 3.894 0 5.07-2.023 1.164-2.036.796-4.463-.821-5.395l-17.085-9.809a1.092 1.092 0 00-1.225.147c-1.286 1.19-3.845 4.181-1.433 7.982z"/>
  <path fill="#010400" d="M255.422 458.151c-.122 1.226 2.817 1.999 5.291 3.433 3.442 1.986 7.153 3.065 8.916 2.048a1.23 1.23 0 00.674-.969v-2.06c0-1.152-1.641-2.893-4.226-5.407-2.841-2.771-4.654-4.512-8.903-2.047-1.225.699-1.703 1.226-1.703 1.667l-.049 3.335z"/>
  <path fill="#1C1C38" d="M266.126 455.196c3.442 3.348 5.316 5.334 3.552 6.351-1.764 1.018-5.291-.514-8.916-3.249-3.16-2.452-7.79-2.697-3.54-5.149s6.014-.723 8.904 2.047z"/>
  <path fill="#5258A6" d="M263.334 452.769a1.92 1.92 0 00.196-.859v-19.887c0-1.876-1.923-3.396-4.275-3.396-2.351 0-4.274 1.52-4.274 3.396v22.45a1.066 1.066 0 00.759 1.03c1.642.515 5.487 1.226 7.594-2.734z"/>
  <path fill="#FCFDFF" d="M233.671 434.255a.682.682 0 00.355.122c1.886.148 8.683-1.336 15.481-8.999.548-.61.872-1.388.918-2.207V401.42a3.574 3.574 0 00-1.531-3.322l-5.107-2.992a3.538 3.538 0 00-3.674.343l-6.969 4.022a11.361 11.361 0 00-5.12 8.877v21.885a1.121 1.121 0 00.49 1.042l5.157 2.98z"/>
  <path fill="#010400" d="M245.232 462.626c-.122 1.226 2.829 1.999 5.303 3.421 3.442 1.986 7.141 3.078 8.904 2.048a1.148 1.148 0 00.674-.969v-2.023c.061-1.14-1.629-2.881-4.213-5.407-2.842-2.771-4.654-4.5-8.916-2.048-1.225.712-1.703 1.227-1.703 1.68l-.049 3.298z"/>
  <path fill="#1C1C38" d="M255.9 459.696c3.429 3.36 5.303 5.334 3.54 6.364-1.764 1.03-5.291-.528-8.904-3.262-3.173-2.452-7.802-2.685-3.552-5.149 4.25-2.465 6.075-.724 8.916 2.047z"/>
  <path fill="#5258A6" d="M253.144 457.268c.142-.263.213-.559.208-.858v-19.887c0-1.864-1.923-3.396-4.274-3.396-2.352 0-4.275 1.532-4.275 3.396v22.474a1.075 1.075 0 00.76 1.03c1.641.491 5.523 1.202 7.581-2.759z"/>
  <path fill="#F1AC85" d="M234.442 400.82a1.753 1.753 0 001.053 1.495 5.578 5.578 0 005.095 0 1.777 1.777 0 001.053-1.495v-4.733a1.75 1.75 0 00-1.053-1.496 5.583 5.583 0 00-5.095 0 1.729 1.729 0 00-1.053 1.496v4.733z"/>
  <path fill="#FCC4B7" d="M238.043 398.453c5.479 0 9.92-4.446 9.92-9.931 0-5.485-4.441-9.931-9.92-9.931s-9.921 4.446-9.921 9.931c0 5.485 4.442 9.931 9.921 9.931z"/>
  <path fill="#0382FF" d="M232.715 396.308a8.026 8.026 0 002.045-3.311.838.838 0 000-.245v-4.757a5.039 5.039 0 01.735-2.685 2.171 2.171 0 011.935-1.226s7.961 3.482 10.937-3.017a.869.869 0 00-.563-1.226c-.576-.135-1.323-.625-2.156-1.986a.885.885 0 00-.943-.405 3.503 3.503 0 01-3.576-1.311.776.776 0 00-.649-.282c-1.519 0-6.761.282-9.614 2.341-.613.503-10.46 8.914.71 18.11a.885.885 0 001.139 0z"/>
  <path fill="#FCC4B7" d="M234.724 394.101c0 1.226-.833 1.667-1.85 1.066a4.067 4.067 0 01-1.316-1.382 4.07 4.07 0 01-.545-1.83c0-1.226.833-1.668 1.861-1.079a4.15 4.15 0 011.85 3.225z"/>
  <path fill="#BBBEB5" d="M262.881 428.051l-17.686 10.189-13.57-7.406 18.102-10.36 13.154 7.577z"/>
  <path fill="#EAEEF1" d="M262.881 428.051l2.78-17.754-19.633 11.341-.833 16.602 17.686-10.189z"/>
  <path fill="#FCC4B7" d="M247.4 431.079a2.805 2.805 0 01-2.103.485 2.808 2.808 0 01-1.829-1.147l-12.798-17.974a2.836 2.836 0 01.661-3.936 2.84 2.84 0 013.944.662l12.786 17.975a2.815 2.815 0 01.484 2.105 2.824 2.824 0 01-1.145 1.83z"/>
  <path fill="#BDCEFA" d="M238.018 411.891l-3.564-6.13a4.382 4.382 0 00-5.977-1.582 4.378 4.378 0 00-1.58 5.971l3.564 6.13s4.679 1.95 7.557-4.389z"/>
  <defs>
    <linearGradient id="paint0_linear" x1="73.461" x2="15.868" y1="57.001" y2="179.855" gradientUnits="userSpaceOnUse">
      <stop stop-color="#E4F2FF"/>
      <stop offset=".2" stop-color="#DCEAFE" stop-opacity=".78"/>
      <stop offset=".6" stop-color="#CBDBFC" stop-opacity=".37"/>
      <stop offset=".87" stop-color="#C1D2FB" stop-opacity=".1"/>
      <stop offset="1" stop-color="#BDCEFA" stop-opacity="0"/>
    </linearGradient>
    <linearGradient id="paint1_linear" x1="23992.9" x2="35003.9" y1="16743.4" y2="49119.1" gradientUnits="userSpaceOnUse">
      <stop stop-color="#E4F2FF"/>
      <stop offset=".2" stop-color="#DCEAFE" stop-opacity=".78"/>
      <stop offset=".6" stop-color="#CBDBFC" stop-opacity=".37"/>
      <stop offset=".87" stop-color="#C1D2FB" stop-opacity=".1"/>
      <stop offset="1" stop-color="#BDCEFA" stop-opacity="0"/>
    </linearGradient>
    <linearGradient id="paint2_linear" x1="16077.8" x2="15863.5" y1="18.515" y2="8000.76" gradientUnits="userSpaceOnUse">
      <stop stop-color="#E4F2FF"/>
      <stop offset=".2" stop-color="#DCEAFE" stop-opacity=".78"/>
      <stop offset=".6" stop-color="#CBDBFC" stop-opacity=".37"/>
      <stop offset=".87" stop-color="#C1D2FB" stop-opacity=".1"/>
      <stop offset="1" stop-color="#BDCEFA" stop-opacity="0"/>
    </linearGradient>
    <linearGradient id="paint3_linear" x1="7756.82" x2="5857.24" y1="16612.5" y2="26758.1" gradientUnits="userSpaceOnUse">
      <stop stop-color="#E4F2FF"/>
      <stop offset=".2" stop-color="#DCEAFE" stop-opacity=".78"/>
      <stop offset=".6" stop-color="#CBDBFC" stop-opacity=".37"/>
      <stop offset=".87" stop-color="#C1D2FB" stop-opacity=".1"/>
      <stop offset="1" stop-color="#BDCEFA" stop-opacity="0"/>
    </linearGradient>
    <linearGradient id="paint4_linear" x1="473.036" x2="385.927" y1="125.723" y2="298.525" gradientUnits="userSpaceOnUse">
      <stop stop-color="#E4F2FF"/>
      <stop offset=".06" stop-color="#E1EFFF"/>
      <stop offset=".65" stop-color="#C7D7FB"/>
      <stop offset="1" stop-color="#BDCEFA"/>
    </linearGradient>
    <linearGradient id="paint5_linear" x1="23981.5" x2="7380.45" y1="11206.8" y2="17977" gradientUnits="userSpaceOnUse">
      <stop stop-color="#E4F2FF"/>
      <stop offset=".06" stop-color="#E1EFFF"/>
      <stop offset=".65" stop-color="#C7D7FB"/>
      <stop offset="1" stop-color="#BDCEFA"/>
    </linearGradient>
    <linearGradient id="paint6_linear" x1="38689.8" x2="29555.8" y1="20327.2" y2="31091.2" gradientUnits="userSpaceOnUse">
      <stop stop-color="#E4F2FF"/>
      <stop offset=".06" stop-color="#E1EFFF"/>
      <stop offset=".65" stop-color="#C7D7FB"/>
      <stop offset="1" stop-color="#BDCEFA"/>
    </linearGradient>
    <linearGradient id="paint7_linear" x1="14777.3" x2="13092" y1="10974.9" y2="12827.1" gradientUnits="userSpaceOnUse">
      <stop stop-color="#E4F2FF"/>
      <stop offset=".06" stop-color="#E1EFFF"/>
      <stop offset=".65" stop-color="#C7D7FB"/>
      <stop offset="1" stop-color="#BDCEFA"/>
    </linearGradient>
    <linearGradient id="paint8_linear" x1="124540" x2="83128.3" y1="39440.6" y2="92074.3" gradientUnits="userSpaceOnUse">
      <stop stop-color="#E4F2FF"/>
      <stop offset=".06" stop-color="#E1EFFF"/>
      <stop offset=".65" stop-color="#C7D7FB"/>
      <stop offset="1" stop-color="#BDCEFA"/>
    </linearGradient>
    <linearGradient id="paint9_linear" x1="57306.7" x2="39722.3" y1="43635.9" y2="39678.4" gradientUnits="userSpaceOnUse">
      <stop stop-color="#E4F2FF"/>
      <stop offset=".06" stop-color="#E1EFFF"/>
      <stop offset=".65" stop-color="#C7D7FB"/>
      <stop offset="1" stop-color="#BDCEFA"/>
    </linearGradient>
    <linearGradient id="paint10_linear" x1="12872.9" x2="6685.51" y1="17573.6" y2="23725.6" gradientUnits="userSpaceOnUse">
      <stop stop-color="#E4F2FF"/>
      <stop offset=".06" stop-color="#E1EFFF"/>
      <stop offset=".65" stop-color="#C7D7FB"/>
      <stop offset="1" stop-color="#BDCEFA"/>
    </linearGradient>
    <linearGradient id="paint11_linear" x1="40300.1" x2="17864.6" y1="37295.6" y2="28515.9" gradientUnits="userSpaceOnUse">
      <stop stop-color="#E4F2FF"/>
      <stop offset=".06" stop-color="#E1EFFF"/>
      <stop offset=".65" stop-color="#C7D7FB"/>
      <stop offset="1" stop-color="#BDCEFA"/>
    </linearGradient>
    <linearGradient id="paint12_linear" x1="31149.6" x2="26009" y1="11101.1" y2="11384.2" gradientUnits="userSpaceOnUse">
      <stop stop-color="#E4F2FF"/>
      <stop offset=".06" stop-color="#E1EFFF"/>
      <stop offset=".65" stop-color="#C7D7FB"/>
      <stop offset="1" stop-color="#BDCEFA"/>
    </linearGradient>
    <linearGradient id="paint13_linear" x1="29852.4" x2="26452.7" y1="11787.5" y2="8698.37" gradientUnits="userSpaceOnUse">
      <stop stop-color="#E4F2FF"/>
      <stop offset=".06" stop-color="#E1EFFF"/>
      <stop offset=".65" stop-color="#C7D7FB"/>
      <stop offset="1" stop-color="#BDCEFA"/>
    </linearGradient>
    <linearGradient id="paint14_linear" x1="39132.4" x2="15711.5" y1="19962.3" y2="40241.9" gradientUnits="userSpaceOnUse">
      <stop stop-color="#E4F2FF"/>
      <stop offset=".06" stop-color="#E1EFFF"/>
      <stop offset=".65" stop-color="#C7D7FB"/>
      <stop offset="1" stop-color="#BDCEFA"/>
    </linearGradient>
    <linearGradient id="paint15_linear" x1="94240.5" x2="55321.1" y1="25483.7" y2="39008.2" gradientUnits="userSpaceOnUse">
      <stop stop-color="#E4F2FF"/>
      <stop offset=".06" stop-color="#E1EFFF"/>
      <stop offset=".65" stop-color="#C7D7FB"/>
      <stop offset="1" stop-color="#BDCEFA"/>
    </linearGradient>
    <linearGradient id="paint16_linear" x1="228.845" x2="268.968" y1="176.017" y2="176.017" gradientUnits="userSpaceOnUse">
      <stop stop-color="#FCFDFF" stop-opacity="0"/>
      <stop offset=".12" stop-color="#FCFAD7" stop-opacity=".16"/>
      <stop offset=".37" stop-color="#FDF58C" stop-opacity=".45"/>
      <stop offset=".59" stop-color="#FEF150" stop-opacity=".69"/>
      <stop offset=".77" stop-color="#FFEE24" stop-opacity=".86"/>
      <stop offset=".91" stop-color="#FFED0A" stop-opacity=".96"/>
      <stop offset="1" stop-color="#FFEC00"/>
    </linearGradient>
    <linearGradient id="paint17_linear" x1="9680.19" x2="10994.6" y1="4471.56" y2="4471.56" gradientUnits="userSpaceOnUse">
      <stop stop-color="#FCFDFF" stop-opacity="0"/>
      <stop offset=".12" stop-color="#FCFAD7" stop-opacity=".16"/>
      <stop offset=".37" stop-color="#FDF58C" stop-opacity=".45"/>
      <stop offset=".59" stop-color="#FEF150" stop-opacity=".69"/>
      <stop offset=".77" stop-color="#FFEE24" stop-opacity=".86"/>
      <stop offset=".91" stop-color="#FFED0A" stop-opacity=".96"/>
      <stop offset="1" stop-color="#FFEC00"/>
    </linearGradient>
    <linearGradient id="paint18_linear" x1="9680.19" x2="10994.6" y1="4340.61" y2="4340.61" gradientUnits="userSpaceOnUse">
      <stop stop-color="#FCFDFF" stop-opacity="0"/>
      <stop offset=".12" stop-color="#FCFAD7" stop-opacity=".16"/>
      <stop offset=".37" stop-color="#FDF58C" stop-opacity=".45"/>
      <stop offset=".59" stop-color="#FEF150" stop-opacity=".69"/>
      <stop offset=".77" stop-color="#FFEE24" stop-opacity=".86"/>
      <stop offset=".91" stop-color="#FFED0A" stop-opacity=".96"/>
      <stop offset="1" stop-color="#FFEC00"/>
    </linearGradient>
    <linearGradient id="paint19_linear" x1="241.656" x2="272.207" y1="206.975" y2="188.209" gradientUnits="userSpaceOnUse">
      <stop stop-color="#FCFDFF" stop-opacity="0"/>
      <stop offset=".12" stop-color="#FCDBE7" stop-opacity=".16"/>
      <stop offset=".37" stop-color="#FD9CB8" stop-opacity=".45"/>
      <stop offset=".59" stop-color="#FE6A94" stop-opacity=".69"/>
      <stop offset=".77" stop-color="#FF4679" stop-opacity=".86"/>
      <stop offset=".91" stop-color="#FF2F69" stop-opacity=".96"/>
      <stop offset="1" stop-color="#FF2763"/>
    </linearGradient>
    <linearGradient id="paint20_linear" x1="1077.53" x2="1175.99" y1="1145.94" y2="1105.79" gradientUnits="userSpaceOnUse">
      <stop stop-color="#FCFDFF" stop-opacity="0"/>
      <stop offset=".12" stop-color="#FCDBE7" stop-opacity=".16"/>
      <stop offset=".37" stop-color="#FD9CB8" stop-opacity=".45"/>
      <stop offset=".59" stop-color="#FE6A94" stop-opacity=".69"/>
      <stop offset=".77" stop-color="#FF4679" stop-opacity=".86"/>
      <stop offset=".91" stop-color="#FF2F69" stop-opacity=".96"/>
      <stop offset="1" stop-color="#FF2763"/>
    </linearGradient>
    <linearGradient id="paint21_linear" x1="1070.4" x2="1168.89" y1="1122.71" y2="1082.52" gradientUnits="userSpaceOnUse">
      <stop stop-color="#FCFDFF" stop-opacity="0"/>
      <stop offset=".12" stop-color="#FCDBE7" stop-opacity=".16"/>
      <stop offset=".37" stop-color="#FD9CB8" stop-opacity=".45"/>
      <stop offset=".59" stop-color="#FE6A94" stop-opacity=".69"/>
      <stop offset=".77" stop-color="#FF4679" stop-opacity=".86"/>
      <stop offset=".91" stop-color="#FF2F69" stop-opacity=".96"/>
      <stop offset="1" stop-color="#FF2763"/>
    </linearGradient>
    <linearGradient id="paint22_linear" x1="4506.9" x2="4866" y1="2739.55" y2="2448.12" gradientUnits="userSpaceOnUse">
      <stop stop-color="#FCFDFF" stop-opacity="0"/>
      <stop offset=".12" stop-color="#FCDBE7" stop-opacity=".16"/>
      <stop offset=".37" stop-color="#FD9CB8" stop-opacity=".45"/>
      <stop offset=".59" stop-color="#FE6A94" stop-opacity=".69"/>
      <stop offset=".77" stop-color="#FF4679" stop-opacity=".86"/>
      <stop offset=".91" stop-color="#FF2F69" stop-opacity=".96"/>
      <stop offset="1" stop-color="#FF2763"/>
    </linearGradient>
    <linearGradient id="paint23_linear" x1="4469.96" x2="4829.18" y1="2688.4" y2="2396.79" gradientUnits="userSpaceOnUse">
      <stop stop-color="#FCFDFF" stop-opacity="0"/>
      <stop offset=".12" stop-color="#FCDBE7" stop-opacity=".16"/>
      <stop offset=".37" stop-color="#FD9CB8" stop-opacity=".45"/>
      <stop offset=".59" stop-color="#FE6A94" stop-opacity=".69"/>
      <stop offset=".77" stop-color="#FF4679" stop-opacity=".86"/>
      <stop offset=".91" stop-color="#FF2F69" stop-opacity=".96"/>
      <stop offset="1" stop-color="#FF2763"/>
    </linearGradient>
    <linearGradient id="paint24_linear" x1="4433.2" x2="4792.29" y1="2637.13" y2="2345.69" gradientUnits="userSpaceOnUse">
      <stop stop-color="#FCFDFF" stop-opacity="0"/>
      <stop offset=".12" stop-color="#FCDBE7" stop-opacity=".16"/>
      <stop offset=".37" stop-color="#FD9CB8" stop-opacity=".45"/>
      <stop offset=".59" stop-color="#FE6A94" stop-opacity=".69"/>
      <stop offset=".77" stop-color="#FF4679" stop-opacity=".86"/>
      <stop offset=".91" stop-color="#FF2F69" stop-opacity=".96"/>
      <stop offset="1" stop-color="#FF2763"/>
    </linearGradient>
    <linearGradient id="paint25_linear" x1="870.328" x2="755.49" y1="1260.51" y2="1312.24" gradientUnits="userSpaceOnUse">
      <stop stop-color="#FCFDFF" stop-opacity="0"/>
      <stop offset=".12" stop-color="#FCFAD7" stop-opacity=".16"/>
      <stop offset=".37" stop-color="#FDF58C" stop-opacity=".45"/>
      <stop offset=".59" stop-color="#FEF150" stop-opacity=".69"/>
      <stop offset=".77" stop-color="#FFEE24" stop-opacity=".86"/>
      <stop offset=".91" stop-color="#FFED0A" stop-opacity=".96"/>
      <stop offset="1" stop-color="#FFEC00"/>
    </linearGradient>
    <linearGradient id="paint26_linear" x1="877.744" x2="762.906" y1="1282.88" y2="1334.6" gradientUnits="userSpaceOnUse">
      <stop stop-color="#FCFDFF" stop-opacity="0"/>
      <stop offset=".12" stop-color="#FCFAD7" stop-opacity=".16"/>
      <stop offset=".37" stop-color="#FDF58C" stop-opacity=".45"/>
      <stop offset=".59" stop-color="#FEF150" stop-opacity=".69"/>
      <stop offset=".77" stop-color="#FFEE24" stop-opacity=".86"/>
      <stop offset=".91" stop-color="#FFED0A" stop-opacity=".96"/>
      <stop offset="1" stop-color="#FFEC00"/>
    </linearGradient>
    <linearGradient id="paint27_linear" x1="885.16" x2="770.322" y1="1305.18" y2="1356.91" gradientUnits="userSpaceOnUse">
      <stop stop-color="#FCFDFF" stop-opacity="0"/>
      <stop offset=".12" stop-color="#FCFAD7" stop-opacity=".16"/>
      <stop offset=".37" stop-color="#FDF58C" stop-opacity=".45"/>
      <stop offset=".59" stop-color="#FEF150" stop-opacity=".69"/>
      <stop offset=".77" stop-color="#FFEE24" stop-opacity=".86"/>
      <stop offset=".91" stop-color="#FFED0A" stop-opacity=".96"/>
      <stop offset="1" stop-color="#FFEC00"/>
    </linearGradient>
    <linearGradient id="paint28_linear" x1="3801.47" x2="3405.43" y1="2900.66" y2="3255.5" gradientUnits="userSpaceOnUse">
      <stop stop-color="#FCFDFF" stop-opacity="0"/>
      <stop offset=".12" stop-color="#FCFAD7" stop-opacity=".16"/>
      <stop offset=".37" stop-color="#FDF58C" stop-opacity=".45"/>
      <stop offset=".59" stop-color="#FEF150" stop-opacity=".69"/>
      <stop offset=".77" stop-color="#FFEE24" stop-opacity=".86"/>
      <stop offset=".91" stop-color="#FFED0A" stop-opacity=".96"/>
      <stop offset="1" stop-color="#FFEC00"/>
    </linearGradient>
    <linearGradient id="paint29_linear" x1="3839.8" x2="3443.93" y1="2949.27" y2="3304.08" gradientUnits="userSpaceOnUse">
      <stop stop-color="#FCFDFF" stop-opacity="0"/>
      <stop offset=".12" stop-color="#FCFAD7" stop-opacity=".16"/>
      <stop offset=".37" stop-color="#FDF58C" stop-opacity=".45"/>
      <stop offset=".59" stop-color="#FEF150" stop-opacity=".69"/>
      <stop offset=".77" stop-color="#FFEE24" stop-opacity=".86"/>
      <stop offset=".91" stop-color="#FFED0A" stop-opacity=".96"/>
      <stop offset="1" stop-color="#FFEC00"/>
    </linearGradient>
    <linearGradient id="paint30_linear" x1="3878.13" x2="3482.26" y1="2997.87" y2="3352.68" gradientUnits="userSpaceOnUse">
      <stop stop-color="#FCFDFF" stop-opacity="0"/>
      <stop offset=".12" stop-color="#FCFAD7" stop-opacity=".16"/>
      <stop offset=".37" stop-color="#FDF58C" stop-opacity=".45"/>
      <stop offset=".59" stop-color="#FEF150" stop-opacity=".69"/>
      <stop offset=".77" stop-color="#FFEE24" stop-opacity=".86"/>
      <stop offset=".91" stop-color="#FFED0A" stop-opacity=".96"/>
      <stop offset="1" stop-color="#FFEC00"/>
    </linearGradient>
    <linearGradient id="paint31_linear" x1="18070.5" x2="5830.62" y1="23436.9" y2="37632" gradientUnits="userSpaceOnUse">
      <stop stop-color="#E4F2FF"/>
      <stop offset=".2" stop-color="#DCEAFE" stop-opacity=".78"/>
      <stop offset=".6" stop-color="#CBDBFC" stop-opacity=".37"/>
      <stop offset=".87" stop-color="#C1D2FB" stop-opacity=".1"/>
      <stop offset="1" stop-color="#BDCEFA" stop-opacity="0"/>
    </linearGradient>
    <linearGradient id="paint32_linear" x1="15717.8" x2="13628.6" y1="9652.9" y2="15142.7" gradientUnits="userSpaceOnUse">
      <stop stop-color="#E4F2FF"/>
      <stop offset=".06" stop-color="#E1EFFF"/>
      <stop offset=".65" stop-color="#C7D7FB"/>
      <stop offset="1" stop-color="#BDCEFA"/>
    </linearGradient>
    <linearGradient id="paint33_linear" x1="12771.5" x2="11300.4" y1="7162.18" y2="11530.7" gradientUnits="userSpaceOnUse">
      <stop stop-color="#E4F2FF"/>
      <stop offset=".06" stop-color="#E1EFFF"/>
      <stop offset=".65" stop-color="#C7D7FB"/>
      <stop offset="1" stop-color="#BDCEFA"/>
    </linearGradient>
    <linearGradient id="paint34_linear" x1="30545.1" x2="21747.8" y1="9067.3" y2="22834.6" gradientUnits="userSpaceOnUse">
      <stop stop-color="#E4F2FF"/>
      <stop offset=".2" stop-color="#DCEAFE" stop-opacity=".78"/>
      <stop offset=".6" stop-color="#CBDBFC" stop-opacity=".37"/>
      <stop offset=".87" stop-color="#C1D2FB" stop-opacity=".1"/>
      <stop offset="1" stop-color="#BDCEFA" stop-opacity="0"/>
    </linearGradient>
    <linearGradient id="paint35_linear" x1="26777.9" x2="22748" y1="6369.11" y2="11819.3" gradientUnits="userSpaceOnUse">
      <stop stop-color="#E4F2FF"/>
      <stop offset=".06" stop-color="#E1EFFF"/>
      <stop offset=".65" stop-color="#C7D7FB"/>
      <stop offset="1" stop-color="#BDCEFA"/>
    </linearGradient>
    <linearGradient id="paint36_linear" x1="26402.5" x2="22372.9" y1="6078.08" y2="11527.8" gradientUnits="userSpaceOnUse">
      <stop stop-color="#E4F2FF"/>
      <stop offset=".06" stop-color="#E1EFFF"/>
      <stop offset=".65" stop-color="#C7D7FB"/>
      <stop offset="1" stop-color="#BDCEFA"/>
    </linearGradient>
    <linearGradient id="paint37_linear" x1="7016.17" x2="4585.57" y1="3853.21" y2="5090.91" gradientUnits="userSpaceOnUse">
      <stop stop-color="#E4F2FF"/>
      <stop offset=".06" stop-color="#E1EFFF"/>
      <stop offset=".65" stop-color="#C7D7FB"/>
      <stop offset="1" stop-color="#BDCEFA"/>
    </linearGradient>
    <linearGradient id="paint38_linear" x1="7116.58" x2="4685.13" y1="3974.14" y2="5212.7" gradientUnits="userSpaceOnUse">
      <stop stop-color="#E4F2FF"/>
      <stop offset=".06" stop-color="#E1EFFF"/>
      <stop offset=".65" stop-color="#C7D7FB"/>
      <stop offset="1" stop-color="#BDCEFA"/>
    </linearGradient>
    <linearGradient id="paint39_linear" x1="7208.68" x2="4778.08" y1="4094.71" y2="5332.42" gradientUnits="userSpaceOnUse">
      <stop stop-color="#E4F2FF"/>
      <stop offset=".06" stop-color="#E1EFFF"/>
      <stop offset=".65" stop-color="#C7D7FB"/>
      <stop offset="1" stop-color="#BDCEFA"/>
    </linearGradient>
    <linearGradient id="paint40_linear" x1="429.508" x2="405.9" y1="346.7" y2="337.497" gradientUnits="userSpaceOnUse">
      <stop stop-color="#E8E9FF"/>
      <stop offset="1" stop-color="#C0C0F6"/>
    </linearGradient>
  </defs>
</svg>
