<svg width="40" height="40" fill="none" xmlns="http://www.w3.org/2000/svg"><path d="M27.67 25.693a1.381 1.381 0 0 1-1.387-1.37c0-.756.622-1.371 1.388-1.371a1.38 1.38 0 0 1 1.388 1.37c0 .756-.623 1.371-1.388 1.371zm-15.341 0a1.381 1.381 0 0 1-1.388-1.37c0-.756.622-1.371 1.388-1.371a1.38 1.38 0 0 1 1.388 1.37c0 .756-.623 1.371-1.388 1.371zm15.84-8.256 2.773-4.744a.564.564 0 0 0-.21-.778.584.584 0 0 0-.79.209l-2.808 4.804c-2.148-.968-4.56-1.507-7.134-1.507-2.574 0-4.987.539-7.135 1.507l-2.809-4.804a.584.584 0 0 0-.788-.209.564.564 0 0 0-.211.778l2.774 4.745a16.163 16.163 0 0 0-8.498 12.945h33.333a16.165 16.165 0 0 0-8.498-12.946" fill="#fff"/></svg>