<svg width="40" height="40" fill="none" xmlns="http://www.w3.org/2000/svg"><path fill-rule="evenodd" clip-rule="evenodd" d="M26.371 5a6.67 6.67 0 0 1-1.55 4.809 5.724 5.724 0 0 1-4.503 2.108 6.349 6.349 0 0 1 1.59-4.63A6.919 6.919 0 0 1 26.372 5zM31.9 15.233a6.805 6.805 0 0 0-3.278 5.72 6.587 6.587 0 0 0 4.06 6.061 15.04 15.04 0 0 1-2.111 4.26c-1.245 1.844-2.55 3.645-4.62 3.678-.984.023-1.649-.258-2.342-.55-.722-.305-1.475-.623-2.653-.623-1.25 0-2.036.328-2.795.644-.655.274-1.29.538-2.184.575-1.972.072-3.48-1.967-4.769-3.793-2.577-3.729-4.584-10.509-1.893-15.122a7.404 7.404 0 0 1 6.222-3.758c1.118-.023 2.191.404 3.132.779.72.286 1.362.541 1.888.541.462 0 1.086-.245 1.814-.531 1.146-.45 2.548-1.002 3.977-.853a7.065 7.065 0 0 1 5.552 2.972z" fill="#fff"/></svg>