<svg width="36" height="36" fill="none" xmlns="http://www.w3.org/2000/svg"><circle cx="18" cy="18" r="18" fill="#191A1B"/><path d="M18.002 27.765c-2.657 0-2.97-.015-4.007-.06a7.11 7.11 0 0 1-2.36-.486 4.988 4.988 0 0 1-2.84-2.841 7.117 7.117 0 0 1-.452-2.362c-.06-1.035-.06-1.374-.06-4.01 0-2.665.013-2.976.06-4.007.016-.806.169-1.604.452-2.359a4.979 4.979 0 0 1 2.844-2.842 7.055 7.055 0 0 1 2.359-.454c1.031-.058 1.37-.058 4.004-.058 2.679 0 2.986.014 4.007.058a7.1 7.1 0 0 1 2.365.454 4.984 4.984 0 0 1 2.844 2.842c.288.766.442 1.576.454 2.394.061 1.035.061 1.373.061 4.008 0 2.636-.015 2.981-.06 4.004a7.124 7.124 0 0 1-.454 2.364 4.994 4.994 0 0 1-2.845 2.843 7.139 7.139 0 0 1-2.36.452c-1.032.06-1.37.06-4.012.06zm-.037-17.77c-2.641 0-2.915.013-3.947.06a5.385 5.385 0 0 0-1.802.336 3.228 3.228 0 0 0-1.857 1.848c-.216.584-.33 1.2-.336 1.822-.057 1.047-.057 1.321-.057 3.945 0 2.592.01 2.906.057 3.946.01.616.123 1.226.336 1.804a3.23 3.23 0 0 0 1.857 1.847c.576.216 1.186.33 1.802.336 1.045.06 1.32.06 3.947.06 2.65 0 2.924-.012 3.947-.06a5.36 5.36 0 0 0 1.803-.336 3.24 3.24 0 0 0 1.847-1.845c.216-.584.33-1.2.336-1.823h.012c.046-1.033.046-1.308.046-3.947 0-2.638-.011-2.916-.058-3.947a5.46 5.46 0 0 0-.336-1.802 3.24 3.24 0 0 0-1.847-1.848 5.337 5.337 0 0 0-1.803-.336c-1.044-.06-1.318-.06-3.947-.06zm.037 13A4.993 4.993 0 1 1 22.992 18a5 5 0 0 1-4.99 4.994zm0-8.237a3.24 3.24 0 1 0 3.24 3.24 3.247 3.247 0 0 0-3.24-3.24zm5.184-.77a1.164 1.164 0 1 1 .009-2.328 1.164 1.164 0 0 1-.009 2.328z" fill="#FFFAF4"/></svg>