<svg width="36" height="36" fill="none" xmlns="http://www.w3.org/2000/svg"><circle cx="18" cy="18" r="18" fill="#191A1B"/><path d="M26.634 12.263A4.644 4.644 0 0 0 28.672 9.7c-.91.54-1.905.92-2.943 1.124a4.644 4.644 0 0 0-7.9 4.229 13.159 13.159 0 0 1-9.552-4.843 4.644 4.644 0 0 0 1.434 6.188 4.62 4.62 0 0 1-2.099-.58v.058a4.637 4.637 0 0 0 3.719 4.544 4.644 4.644 0 0 1-2.093.08 4.644 4.644 0 0 0 4.33 3.219 9.299 9.299 0 0 1-5.757 1.984c-.37 0-.74-.021-1.107-.064a13.118 13.118 0 0 0 7.105 2.082 13.097 13.097 0 0 0 13.187-13.188c0-.2-.005-.4-.014-.6a9.413 9.413 0 0 0 2.314-2.399 9.267 9.267 0 0 1-2.662.73z" fill="#FFFAF4"/></svg>