<svg width="50" height="50" fill="none" xmlns="http://www.w3.org/2000/svg"><circle cx="25" cy="25" r="25" fill="#191A1B"/><path d="M25.009 35.518h-.03c-.093 0-9.397-.018-11.745-.656a3.75 3.75 0 0 1-2.646-2.647A39.743 39.743 0 0 1 9.979 25c-.01-2.422.199-4.84.626-7.226a3.846 3.846 0 0 1 2.649-2.674c2.283-.6 11.33-.6 11.714-.6H25c.095 0 9.423.018 11.746.655A3.757 3.757 0 0 1 39.39 17.8c.436 2.39.64 4.817.611 7.247.01 2.419-.2 4.834-.627 7.216a3.765 3.765 0 0 1-2.65 2.645c-2.28.604-11.33.61-11.714.61zm-3-15.01-.008 9 7.819-4.5-7.811-4.5z" fill="#fff"/></svg>