<svg width="90" height="88" fill="none" xmlns="http://www.w3.org/2000/svg"><path fill="#2C2C96" d="M0 0h90v88H0z"/><path d="M27.11 29.453 31.983 40h-2.547l-.796-1.953H24.5L23.703 40h-2.547l4.875-10.547h1.078zM26.577 33l-1.312 3.203h2.625L26.578 33zm12.975-3.469c.49 0 .969.084 1.438.25.468.167.89.412 1.265.735.386.323.688.713.907 1.172.229.447.343.963.343 1.546 0 .709-.182 1.339-.547 1.891a3.754 3.754 0 0 1-1.422 1.281 4.095 4.095 0 0 1-1.937.469 5.23 5.23 0 0 1-1.266-.14 4.631 4.631 0 0 1-.937-.329V40h-2.172V29.531h4.328zm-2.156 2.032v3.093c.229.094.505.177.828.25a5.49 5.49 0 0 0 1.016.094c.625 0 1.12-.172 1.484-.516.375-.354.563-.77.563-1.25 0-.552-.209-.968-.625-1.25-.417-.28-.907-.422-1.47-.422h-1.796zM56.45 29.53v10.547h-.781l-6.203-6.39V40h-2.172V29.453h.781l6.203 6.485V29.53h2.172zm10.35 8.516V40h-5.703v-1.953h1.765v-6.563h-1.765v-1.953H66.8v1.953h-1.766v6.563H66.8zM11.734 48.531v4.688l3.985-4.688h2.75l-4.11 4.578L18.938 59h-2.844l-3.219-4.234-1.14 1.28V59H9.562V48.531h2.171zm15.147-.078L31.756 59H29.21l-.796-1.953h-4.141L23.475 59h-2.547l4.875-10.547h1.078zM26.35 52l-1.313 3.203h2.626L26.35 52zm10.897-3.469v4.688l3.984-4.688h2.75l-4.11 4.578L44.45 59h-2.844l-3.218-4.234-1.141 1.28V59h-2.172V48.531h2.172zm13.46-.203c.603 0 1.155.083 1.655.25.5.167.922.36 1.266.578v2.14a11.91 11.91 0 0 0-1.203-.64 3.418 3.418 0 0 0-1.453-.297c-.271 0-.542.042-.813.125-.26.084-.479.209-.656.375a.867.867 0 0 0-.25.641c0 .344.151.604.453.781.302.177.672.354 1.11.532l1.28.53c.73.313 1.267.693 1.61 1.141.344.448.516.959.516 1.532a2.66 2.66 0 0 1-.547 1.656c-.354.469-.833.838-1.438 1.11-.593.27-1.255.406-1.984.406a5.043 5.043 0 0 1-1.766-.313 6.093 6.093 0 0 1-1.468-.766v-2.14c.458.333.963.614 1.515.843.553.23 1.141.344 1.766.344.438 0 .813-.083 1.125-.25.313-.177.469-.437.469-.781 0-.27-.13-.49-.39-.656a3.688 3.688 0 0 0-.829-.438l-1.61-.625c-.812-.312-1.364-.718-1.656-1.218a3.438 3.438 0 0 1-.422-1.688c0-.635.172-1.188.516-1.656.354-.48.813-.85 1.375-1.11a4.158 4.158 0 0 1 1.828-.406zm9.474.203v4.266h4.86V48.53h2.156V59H65.04v-4.25h-4.86V59H58.01V48.531h2.172zm16.288-.078L81.344 59h-2.547L78 57.047h-4.14L73.062 59h-2.547l4.875-10.547h1.078zM75.938 52l-1.313 3.203h2.625L75.937 52z" fill="#fff"/></svg>